<svg data-name="Illustration / icon / App" xmlns="http://www.w3.org/2000/svg" width="64" height="64" viewBox="0 0 64 64">
    <defs>
        <clipPath id="a">
            <path data-name="Rectangle 140" d="M0 0h28.24v54.5H0z"/>
        </clipPath>
    </defs>
    <path data-name="Rectangle 47" style="fill:none" d="M0 0h64v64H0z"/>
    <g data-name="Group 187" style="clip-path:url(#a)" transform="translate(18 5)">
        <path data-name="Path 1024" d="M24.41 0H3.83A3.839 3.839 0 0 0 0 3.84v46.82a3.839 3.839 0 0 0 3.83 3.84h20.58a3.839 3.839 0 0 0 3.83-3.84V3.84A3.839 3.839 0 0 0 24.41 0m1.83 50.66a1.833 1.833 0 0 1-1.83 1.84H3.83A1.833 1.833 0 0 1 2 50.66V3.84A1.833 1.833 0 0 1 3.83 2h4.66v2.1a1.123 1.123 0 0 0 1.13 1.13h9a1.123 1.123 0 0 0 1.13-1.13V2h4.66a1.833 1.833 0 0 1 1.83 1.84z"/>
        <path data-name="Path 1025" d="M18.43 26.86a2.519 2.519 0 0 1-.58 1.88 3.77 3.77 0 0 0-.73 1.6c-.14.68-.32 1.54-.44 2.12a.86.86 0 0 1-1.68.03l-.38-1.52a.513.513 0 0 0-1 0l-.38 1.52a.86.86 0 0 1-1.68-.03c-.12-.58-.3-1.44-.44-2.12a3.77 3.77 0 0 0-.73-1.6 2.519 2.519 0 0 1-.58-1.88 2.6 2.6 0 0 1 2.35-2.35 2.7 2.7 0 0 1 1.07.13 2.715 2.715 0 0 0 1.78 0 2.7 2.7 0 0 1 1.07-.13 2.6 2.6 0 0 1 2.35 2.35"/>
        <path data-name="Path 1026" d="M19.45 50.88a1 1 0 0 1-1 1h-8.4a1 1 0 1 1 0-2h8.4a1 1 0 0 1 1 1"/>
    </g>
</svg>
