<svg data-name="Illustration / Brasil" xmlns="http://www.w3.org/2000/svg" width="64" height="64" viewBox="0 0 64 64">
    <defs>
        <clipPath id="a">
            <path data-name="Rectangle 97" style="stroke:#231f20;stroke-width:2px;fill:none" d="M0 0h54v54H0z"/>
        </clipPath>
    </defs>
    <path data-name="Rectangle 33" style="fill:none" d="M0 0h64v64H0z"/>
    <g data-name="Group 113">
        <g data-name="Group 112" style="clip-path:url(#a)" transform="translate(5 6)">
            <path data-name="Path 864" d="m30.577 55.094 3.661 3.666a.942.942 0 0 0 1.309.018l4.343-4.107a.9.9 0 0 0 .284-.62c.051-1.2.367-5.1 2.337-7.034a6.639 6.639 0 0 1 5.244-1.691.94.94 0 0 0 .755-.268l5.958-5.938a.905.905 0 0 0 .268-.641v-6.858a.9.9 0 0 1 .242-.615l2.964-3.2a3.938 3.938 0 0 0-1.316-6.29l-15.557-6.957a.926.926 0 0 1-.363-.289l-3.3-4.4a.941.941 0 0 0-1.427-.084l-2.353 2.459a.939.939 0 0 1-.7.288l-4.185-.077a.93.93 0 0 1-.842-.564l-1.787-4.24a.935.935 0 0 0-1.143-.521l-3.382 1.063a.915.915 0 0 0-.646.886 4.96 4.96 0 0 1-1.216 3.652c-1.565 1.44-4.988-2.017-6.846-.48-1.551 1.283-1.262 5.444-1.124 6.783a.9.9 0 0 1-.262.729l-4.14 4.143a.9.9 0 0 0 0 1.276l4.176 4.225a.943.943 0 0 0 1.13.156l4.9-2.759a.931.931 0 0 1 1.391.729l.245 3.495a.917.917 0 0 0 .647.808l3.636 1.129a.919.919 0 0 1 .639.734l.429 2.771a.914.914 0 0 0 .493.674l2.139 1.084a.913.913 0 0 1 .5.759l.232 3.95a.91.91 0 0 0 .491.753c1.308.68 4.95 2.785 4.95 5.149 0 2.048-1.746 4-2.755 4.956a.9.9 0 0 0-.019 1.298z" transform="translate(-6.041 -6.06)" style="stroke-linecap:round;stroke-linejoin:round;stroke:#231f20;stroke-width:2px;fill:none"/>
        </g>
    </g>
</svg>
