<svg id="Illustration_Calendar" data-name="Illustration / Calendar" xmlns="http://www.w3.org/2000/svg" width="64" height="64" viewBox="0 0 64 64">
    <defs>
        <clipPath id="clip-path">
            <path id="Rectangle_131" data-name="Rectangle 131" class="cls-1" d="M0 0h51.996v52H0z"/>
        </clipPath>
        <style>
            .cls-1{fill:none}.cls-3{fill:#231f20}
        </style>
    </defs>
    <path id="Rectangle_47" data-name="Rectangle 47" class="cls-1" d="M0 0h64v64H0z"/>
    <g id="Group_156" data-name="Group 156" transform="translate(8 6)">
        <g id="Group_155" data-name="Group 155" style="clip-path:url(#clip-path)">
            <path id="Path_929" data-name="Path 929" class="cls-3" d="M32.4 45H1a1 1 0 0 1-1-1V12a1 1 0 0 1 1-1h41a1 1 0 0 1 1 1v17.44a1 1 0 0 1-.705.956 7.776 7.776 0 0 1-4.883-.091 5.173 5.173 0 0 0-.607-.164 5.3 5.3 0 0 0-1.708-.115 5.242 5.242 0 0 0-1.69.428 5.652 5.652 0 0 0-3.381 4.632 5.571 5.571 0 0 0 1.254 4.066 10.489 10.489 0 0 1 2.069 4.482l.038.2A1 1 0 0 1 32.4 45M2 43h29.111a7.983 7.983 0 0 0-1.375-2.576 7.588 7.588 0 0 1 2.868-11.8 7.519 7.519 0 0 1 4.628-.435 6.845 6.845 0 0 1 .825.225 5.85 5.85 0 0 0 2.943.242V13H2z"/>
            <path id="Path_930" data-name="Path 930" class="cls-3" d="M42 13H1a1 1 0 0 1-1-1V4a1 1 0 0 1 1-1h41a1 1 0 0 1 1 1v8a1 1 0 0 1-1 1M2 11h39V5H2z"/>
            <path id="Path_931" data-name="Path 931" class="cls-3" d="M7 8a1 1 0 0 1-1-1V1a1 1 0 0 1 2 0v6a1 1 0 0 1-1 1"/>
            <path id="Path_932" data-name="Path 932" class="cls-3" d="M13 8a1 1 0 0 1-1-1V1a1 1 0 0 1 2 0v6a1 1 0 0 1-1 1"/>
            <path id="Path_933" data-name="Path 933" class="cls-3" d="M30 8a1 1 0 0 1-1-1V1a1 1 0 0 1 2 0v6a1 1 0 0 1-1 1"/>
            <path id="Path_934" data-name="Path 934" class="cls-3" d="M36 8a1 1 0 0 1-1-1V1a1 1 0 0 1 2 0v6a1 1 0 0 1-1 1"/>
            <path id="Path_935" data-name="Path 935" class="cls-3" d="M19 22h-4a1 1 0 0 1-1-1v-4a1 1 0 0 1 1-1h4a1 1 0 0 1 1 1v4a1 1 0 0 1-1 1m-3-2h2v-2h-2z"/>
            <path id="Path_936" data-name="Path 936" class="cls-3" d="M28 22h-4a1 1 0 0 1-1-1v-4a1 1 0 0 1 1-1h4a1 1 0 0 1 1 1v4a1 1 0 0 1-1 1m-3-2h2v-2h-2z"/>
            <path id="Path_937" data-name="Path 937" class="cls-3" d="M37 22h-4a1 1 0 0 1-1-1v-4a1 1 0 0 1 1-1h4a1 1 0 0 1 1 1v4a1 1 0 0 1-1 1m-3-2h2v-2h-2z"/>
            <path id="Path_938" data-name="Path 938" class="cls-3" d="M10 31H6a1 1 0 0 1-1-1v-4a1 1 0 0 1 1-1h4a1 1 0 0 1 1 1v4a1 1 0 0 1-1 1m-3-2h2v-2H7z"/>
            <path id="Path_939" data-name="Path 939" class="cls-3" d="M19 31h-4a1 1 0 0 1-1-1v-4a1 1 0 0 1 1-1h4a1 1 0 0 1 1 1v4a1 1 0 0 1-1 1m-3-2h2v-2h-2z"/>
            <path id="Path_940" data-name="Path 940" class="cls-3" d="M28 31h-4a1 1 0 0 1-1-1v-4a1 1 0 0 1 1-1h4a1 1 0 0 1 1 1v4a1 1 0 0 1-1 1m-3-2h2v-2h-2z"/>
            <path id="Path_941" data-name="Path 941" class="cls-3" d="M10 40H6a1 1 0 0 1-1-1v-4a1 1 0 0 1 1-1h4a1 1 0 0 1 1 1v4a1 1 0 0 1-1 1m-3-2h2v-2H7z"/>
            <path id="Path_942" data-name="Path 942" class="cls-3" d="M19 40h-4a1 1 0 0 1-1-1v-4a1 1 0 0 1 1-1h4a1 1 0 0 1 1 1v4a1 1 0 0 1-1 1m-3-2h2v-2h-2z"/>
            <path id="Path_943" data-name="Path 943" class="cls-3" d="M44.37 52a3.191 3.191 0 0 1-3.112-2.444l-.94-3.869a.328.328 0 0 0-.637 0l-.939 3.868A3.2 3.2 0 0 1 35.63 52a3.207 3.207 0 0 1-3.13-2.548l-.389-1.9c-.225-1.1-.469-2.291-.69-3.346l-.028-.156a8.488 8.488 0 0 0-1.657-3.626 7.587 7.587 0 0 1 2.868-11.8 7.519 7.519 0 0 1 4.628-.435 6.664 6.664 0 0 1 .825.225 5.845 5.845 0 0 0 3.648.073 1.757 1.757 0 0 0 .17-.052c.178-.065.324-.107.475-.149l.119-.035a7.508 7.508 0 0 1 2.623-.215 6.961 6.961 0 0 1 2.168.534 7.154 7.154 0 0 1 1.777 1.03 7.566 7.566 0 0 1 1.224 10.826 7.412 7.412 0 0 0-1.161 2 9.21 9.21 0 0 0-.492 1.621c-.224 1.12-.5 2.426-.745 3.6-.132.684-.254 1.282-.364 1.808a3.043 3.043 0 0 1-.14.487 3.22 3.22 0 0 1-.984 1.347A3.133 3.133 0 0 1 44.37 52M40 43.438a2.292 2.292 0 0 1 2.261 1.775l.941 3.87A1.2 1.2 0 0 0 44.37 50a1.144 1.144 0 0 0 .737-.254 1.193 1.193 0 0 0 .38-.506.924.924 0 0 0 .047-.154c.116-.555.235-1.14.354-1.762.263-1.254.536-2.554.761-3.679a11.188 11.188 0 0 1 .6-1.967 9.412 9.412 0 0 1 1.472-2.522 5.574 5.574 0 0 0 1.254-4.066 5.442 5.442 0 0 0-.669-2.164 5.539 5.539 0 0 0-1.5-1.744 5.229 5.229 0 0 0-1.318-.762 4.918 4.918 0 0 0-1.576-.389 5.4 5.4 0 0 0-1.92.152l-.1.028c-.1.028-.188.052-.281.087l-.1.035c-.1.032-.191.062-.292.086a7.685 7.685 0 0 1-4.811-.111 5.376 5.376 0 0 0-.607-.165 5.243 5.243 0 0 0-1.708-.113 5.191 5.191 0 0 0-1.69.428 5.649 5.649 0 0 0-3.381 4.63 5.576 5.576 0 0 0 1.254 4.068 10.485 10.485 0 0 1 2.069 4.481l.038.2c.214 1.017.458 2.212.683 3.314l.389 1.9A1.2 1.2 0 0 0 35.63 50a1.16 1.16 0 0 0 .731-.246 1.188 1.188 0 0 0 .437-.666l.94-3.873A2.294 2.294 0 0 1 40 43.438"/>
            <path id="Path_944" data-name="Path 944" class="cls-3" d="M40 34.209a8.9 8.9 0 0 1-4.706-1.509 1 1 0 0 1 1.163-1.627A6.944 6.944 0 0 0 40 32.209a6.936 6.936 0 0 0 3.545-1.136 1 1 0 0 1 1.161 1.627A8.9 8.9 0 0 1 40 34.209"/>
        </g>
    </g>
</svg>
