<?xml version="1.0" encoding="utf-8"?>
<!-- Generator: Adobe Illustrator 26.5.0, SVG Export Plug-In . SVG Version: 6.00 Build 0)  -->
<svg version="1.1" id="Camada_1" xmlns="http://www.w3.org/2000/svg" xmlns:xlink="http://www.w3.org/1999/xlink" x="0px" y="0px"
	 viewBox="0 0 28.3 28.3" style="enable-background:new 0 0 28.3 28.3;" xml:space="preserve">
<g>
	<path d="M0,6.3C0.1,5.9,0.2,5.4,0.4,5c0.7-1.4,1.8-2.1,3.4-2.2c0.1,0,0.2,0,0.3,0c6.7,0,13.4,0,20.1,0c1.7,0,3,0.8,3.7,2.3
		c0.3,0.5,0.4,1.1,0.4,1.7c0,3.7,0,7.5,0,11.2c0,2.3-1.7,4-4,4c-0.3,0-0.6,0-0.9,0c0,0.6,0,1.1,0,1.7c0,0.8,0,1.7,0,2.5
		c0,0.3,0,0.6-0.4,0.7c-0.3,0.1-0.5,0-0.8-0.2c-1.8-1.5-3.5-3-5.3-4.5c-0.2-0.2-0.4-0.2-0.6-0.2c-4.1,0-8.1,0-12.2,0
		c-1.4,0-2.5-0.5-3.4-1.6c-0.4-0.5-0.6-1.1-0.7-1.7c0-0.1,0-0.1-0.1-0.2C0,14.4,0,10.4,0,6.3z M22.2,25.2c0-0.2,0-0.3,0-0.4
		c0-1.1,0-2.2,0-3.3c0-0.5,0.2-0.7,0.7-0.7c0.4,0,0.9,0,1.4,0c1.7,0,2.9-1.2,2.9-2.9c0-3.7,0-7.4,0-11c0-1.7-1.2-2.9-2.9-2.9
		c-6.7,0-13.4,0-20.1,0c-1.7,0-2.9,1.2-2.9,3c0,2.1,0,4.1,0,6.2c0,1.7,0,3.4,0,5.1c0,0.6,0.2,1.1,0.6,1.6c0.6,0.8,1.4,1.1,2.4,1.1
		c4.2,0,8.3,0,12.5,0c0.4,0,0.6,0.1,0.9,0.3c0.6,0.6,1.3,1.1,2,1.7C20.4,23.6,21.3,24.4,22.2,25.2z"/>
	<path d="M14.1,13c-3,0-6,0-9,0c-0.5,0-0.8-0.2-0.8-0.6c0-0.4,0.3-0.6,0.8-0.6c6,0,12,0,18,0c0.5,0,0.8,0.2,0.8,0.6
		c0,0.4-0.3,0.6-0.8,0.6C20.2,13,17.2,13,14.1,13z"/>
	<path d="M14.2,15.5c3,0,6,0,9,0c0.5,0,0.8,0.2,0.8,0.6c0,0.4-0.3,0.6-0.8,0.6c-6,0-12,0-18,0c-0.5,0-0.8-0.2-0.8-0.6
		c0-0.4,0.3-0.6,0.8-0.6C8.2,15.5,11.2,15.5,14.2,15.5z"/>
	<path d="M14.1,9.3c-3,0-6,0-9,0c-0.1,0-0.3,0-0.4,0C4.5,9.1,4.3,8.9,4.4,8.7c0-0.3,0.1-0.5,0.4-0.5c0.1,0,0.3,0,0.4,0
		c6,0,12.1,0,18.1,0c0.1,0,0.2,0,0.4,0C23.8,8.2,24,8.4,24,8.7c0,0.2-0.2,0.5-0.4,0.5c-0.1,0-0.3,0-0.4,0
		C20.2,9.3,17.2,9.3,14.1,9.3z"/>
</g>
</svg>
