<?xml version="1.0" encoding="utf-8"?>
<!-- Generator: Adobe Illustrator 26.5.0, SVG Export Plug-In . SVG Version: 6.00 Build 0)  -->
<svg version="1.1" id="Camada_1" xmlns="http://www.w3.org/2000/svg" xmlns:xlink="http://www.w3.org/1999/xlink" x="0px" y="0px"
	 viewBox="0 0 28.3 28.3" style="enable-background:new 0 0 28.3 28.3;" xml:space="preserve">
<path d="M14.2,27.3c-2.7,0-5.5,0-8.2,0c-2.8,0-5.2-1.8-5.8-4.5C0.1,22.4,0,22,0,21.6C0,17,0,12.3,0,7.7C0,4.6,2.7,2,5.9,2
	c5.5,0,11,0,16.6,0c3.2,0,5.8,2.6,5.9,5.7c0,4.6,0,9.2,0,13.9c0,3.1-2.6,5.7-5.9,5.7C19.7,27.3,16.9,27.3,14.2,27.3z M2.4,9.5
	c0,0.1,0,0.2,0,0.2c0,4,0,7.9,0,11.8C2.4,23.5,4,25,6,25c5.5,0,10.9,0,16.4,0c2,0,3.6-1.5,3.6-3.5c0-3.9,0-7.8,0-11.7
	c0-0.1,0-0.1,0-0.2c0,0,0,0-0.1,0c-0.1,0.1-0.1,0.2-0.2,0.2c-2.4,2.4-4.8,4.7-7.2,7.1c-2.5,2.4-6.1,2.4-8.6,0
	c-2.1-2-4.2-4.1-6.2-6.1C3.3,10.3,2.9,9.9,2.4,9.5z M14.2,4.3c-2.7,0-5.5,0-8.2,0C4.5,4.3,3.5,5,2.8,6.2C2.7,6.4,2.7,6.5,2.8,6.6
	c2.9,2.9,5.9,5.7,8.8,8.6c1.4,1.4,3.6,1.4,5.1,0c2.9-2.9,5.9-5.7,8.8-8.6c0.1-0.1,0.2-0.3,0.1-0.4c-0.7-1.3-1.8-1.9-3.2-1.9
	C19.6,4.3,16.9,4.3,14.2,4.3z"/>
</svg>
