<?xml version="1.0" encoding="utf-8"?>
<!-- Generator: Adobe Illustrator 26.5.0, SVG Export Plug-In . SVG Version: 6.00 Build 0)  -->
<svg version="1.1" id="Camada_1" xmlns="http://www.w3.org/2000/svg" xmlns:xlink="http://www.w3.org/1999/xlink" x="0px" y="0px"
	 viewBox="0 0 28.3 28.3" style="enable-background:new 0 0 28.3 28.3;" xml:space="preserve">
<path id="Caminho_168_00000151520408322152128230000003331965384494491287_" d="M23,16.7v5h-2.5v-5H23 M7.9,16.7v5H6.6
	c-0.7,0-1.3-0.6-1.3-1.3v-3.8H7.9 M14.2,0.3C7.9,0.3,2.8,5.4,2.8,11.6v8.8c0,2.1,1.7,3.8,3.8,3.8h3.8V14.2h-5v-2.5
	c0-4.9,4-8.8,8.8-8.8s8.8,4,8.8,8.8v2.5h-5v10.1h5v1.3h-8.8v2.5h7.6c2.1,0,3.8-1.7,3.8-3.8V11.6C25.5,5.4,20.4,0.3,14.2,0.3z"/>
</svg>
