<svg id="Illustration_Extraction" data-name="Illustration / Extraction" xmlns="http://www.w3.org/2000/svg" width="64" height="64" viewBox="0 0 64 64">
    <defs>
        <clipPath id="clip-path">
            <path id="Rectangle_124" data-name="Rectangle 124" style="stroke-width:2px;stroke:#707070;fill:none" d="M0 0h44v60H0z"/>
        </clipPath>
        <style>
            .cls-4{fill:none;stroke-width:2px;stroke:#231f20;stroke-linecap:round;stroke-linejoin:round}
        </style>
    </defs>
    <path id="Rectangle_47" data-name="Rectangle 47" style="fill:none" d="M0 0h64v64H0z"/>
    <g id="Group_144" data-name="Group 144" transform="translate(10 2)">
        <g id="Group_143" data-name="Group 143" style="clip-path:url(#clip-path)">
            <path id="Path_916" data-name="Path 916" class="cls-4" d="M31.66 42a6.244 6.244 0 0 1-1.03 1.81 8.426 8.426 0 0 0-1.69 3.69c-.33 1.58-.73 3.55-1.01 4.91a2 2 0 0 1-3.9.06l-.86-3.52a1.206 1.206 0 0 0-2.34 0l-.86 3.52a2 2 0 0 1-3.9-.06c-.28-1.36-.68-3.33-1.01-4.91a8.426 8.426 0 0 0-1.69-3.69A6.244 6.244 0 0 1 12.34 42a5.937 5.937 0 0 1-.32-2.54 6.046 6.046 0 0 1 5.44-5.44 6.143 6.143 0 0 1 2.48.3 6.2 6.2 0 0 0 4.12 0 6.143 6.143 0 0 1 2.48-.3 6.046 6.046 0 0 1 5.44 5.44 5.937 5.937 0 0 1-.32 2.54z"/>
            <path id="Path_917" data-name="Path 917" class="cls-4" d="M43 42h0a17 17 0 0 1-17 17h-8A17 17 0 0 1 1 42h11.34a6.244 6.244 0 0 0 1.03 1.81 8.426 8.426 0 0 1 1.69 3.69c.322 1.543.712 3.459.99 4.815a2.073 2.073 0 0 0 1.427 1.609 2 2 0 0 0 2.493-1.454l.86-3.52a1.2 1.2 0 0 1 2.34 0l.843 3.449a2.06 2.06 0 0 0 1.467 1.543 2 2 0 0 0 2.45-1.532c.28-1.36.68-3.33 1.01-4.91a8.426 8.426 0 0 1 1.69-3.69A6.244 6.244 0 0 0 31.66 42z"/>
            <path id="Path_918" data-name="Path 918" class="cls-4" d="M19.65 26.23A12 12 0 0 0 10 38a4.29 4.29 0 0 1-4.29-4.23 4.049 4.049 0 0 1 .23-1.36 16.972 16.972 0 0 1 4.04-6.43 17.147 17.147 0 0 1 3.14-2.48 16.975 16.975 0 0 0 5.98 2.25 3.572 3.572 0 0 0 .55.48z"/>
            <path id="Path_919" data-name="Path 919" class="cls-4" d="M38.328 1a3.282 3.282 0 0 1 3.088 4.395L38.06 14.71a17.015 17.015 0 0 1-7.18 8.79 16.927 16.927 0 0 0-5.22-2.1 3.806 3.806 0 0 0-.55-.91 9.838 9.838 0 0 0 6.2-6.1L35.23 3.2A3.282 3.282 0 0 1 38.328 1z"/>
            <path id="Path_920" data-name="Path 920" class="cls-4" d="M5.672 1a3.282 3.282 0 0 1 3.1 2.2l3.918 11.19a9.838 9.838 0 0 0 6.2 6.1 3.991 3.991 0 0 1 6.22 0 3.806 3.806 0 0 1 .55.91 16.927 16.927 0 0 1 5.22 2.1 17.147 17.147 0 0 1 3.14 2.48 16.972 16.972 0 0 1 4.04 6.43A4.253 4.253 0 0 1 34 38a11.983 11.983 0 0 0-9.65-11.77 3.971 3.971 0 0 1-4.7 0 3.572 3.572 0 0 1-.55-.48A17.106 17.106 0 0 1 5.94 14.71L2.584 5.395A3.282 3.282 0 0 1 5.672 1z"/>
            <path id="Path_921" data-name="Path 921" d="M23 23a1 1 0 1 1-1-1 1 1 0 0 1 1 1" style="fill:#231f20"/>
        </g>
    </g>
</svg>
