<svg id="Illustration_Family" data-name="Illustration / Family" xmlns="http://www.w3.org/2000/svg" width="64" height="64" viewBox="0 0 64 64">
    <defs>
        <clipPath id="clip-path">
            <path id="Rectangle_113" data-name="Rectangle 113" style="stroke:#000;stroke-width:2px;fill:none" d="M0 0h48v48H0z"/>
        </clipPath>
        <style>
            .cls-4{fill:none;stroke:#000;stroke-width:2px;stroke-miterlimit:10}
        </style>
    </defs>
    <path id="Rectangle_33" data-name="Rectangle 33" style="fill:none" d="M0 0h64v64H0z"/>
    <g id="Group_124" data-name="Group 124" transform="translate(8 8)">
        <g id="Group_123" data-name="Group 123" style="clip-path:url(#clip-path)">
            <path id="Path_870" data-name="Path 870" class="cls-4" d="M28 21c0 2.761-1.791 5-4 5s-4-2.239-4-5a3.689 3.689 0 0 1 4-4 3.689 3.689 0 0 1 4 4z"/>
            <path id="Line_39" data-name="Line 39" class="cls-4" transform="translate(29 40)" d="M0 8V0"/>
            <path id="Path_871" data-name="Path 871" class="cls-4" d="M24 48"/>
            <path id="Line_40" data-name="Line 40" class="cls-4" transform="translate(19 40)" d="M0 0v8"/>
            <path id="Path_872" data-name="Path 872" class="cls-4" d="M29 31v9a2 2 0 0 0 4 0V30a4 4 0 0 0-4-4H19a4 4 0 0 0-4 4v10a2 2 0 0 0 4 0v-9"/>
            <path id="Line_41" data-name="Line 41" class="cls-4" transform="translate(19 40)" d="M0 0h10"/>
            <path id="Line_42" data-name="Line 42" class="cls-4" transform="translate(24 30)" d="M0 0v2"/>
            <path id="Line_43" data-name="Line 43" class="cls-4" transform="translate(24 34)" d="M0 0v2"/>
            <path id="Path_873" data-name="Path 873" class="cls-4" d="M14 21c0 2.761-1.791 5-4 5s-4-2.239-4-5a3.689 3.689 0 0 1 4-4 3.689 3.689 0 0 1 4 4z"/>
            <path id="Path_874" data-name="Path 874" class="cls-4" d="M10 48"/>
            <path id="Line_44" data-name="Line 44" class="cls-4" transform="translate(5 40)" d="M0 0v8"/>
            <path id="Path_875" data-name="Path 875" class="cls-4" d="M10 26H5a4 4 0 0 0-4 4v10a2 2 0 0 0 4 0v-9"/>
            <path id="Line_45" data-name="Line 45" class="cls-4" transform="translate(5 40)" d="M0 0h7"/>
            <path id="Path_876" data-name="Path 876" class="cls-4" d="M34 21c0 2.761 1.791 5 4 5s4-2.239 4-5a3.689 3.689 0 0 0-4-4 3.689 3.689 0 0 0-4 4z"/>
            <path id="Line_46" data-name="Line 46" class="cls-4" transform="translate(38 44)" d="M0 0v4"/>
            <path id="Line_47" data-name="Line 47" class="cls-4" transform="translate(43 40)" d="M0 0v8"/>
            <path id="Path_877" data-name="Path 877" class="cls-4" d="M38 26h5a4 4 0 0 1 4 4v10a2 2 0 0 1-4 0v-9"/>
            <path id="Line_48" data-name="Line 48" class="cls-4" transform="translate(36 40)" d="M7 0H0"/>
            <path id="Path_878" data-name="Path 878" class="cls-4" d="M28 5c0 2.761-1.791 5-4 5s-4-2.239-4-5a3.689 3.689 0 0 1 4-4 3.689 3.689 0 0 1 4 4z"/>
            <path id="Path_879" data-name="Path 879" class="cls-4" d="M33 15v-1a4 4 0 0 0-4-4H19a4 4 0 0 0-4 4v1"/>
            <path id="Path_880" data-name="Path 880" class="cls-4" d="M34 5c0 2.761 1.791 5 4 5s4-2.239 4-5a3.689 3.689 0 0 0-4-4 3.689 3.689 0 0 0-4 4z"/>
            <path id="Path_881" data-name="Path 881" class="cls-4" d="M38 10h5a4 4 0 0 1 4 4v9"/>
            <path id="Path_882" data-name="Path 882" class="cls-4" d="M14 5c0 2.761-1.791 5-4 5S6 7.761 6 5a3.689 3.689 0 0 1 4-4 3.689 3.689 0 0 1 4 4z"/>
            <path id="Path_883" data-name="Path 883" class="cls-4" d="M10 10H5a4 4 0 0 0-4 4v9"/>
        </g>
    </g>
</svg>
