<svg id="Illustration_braces" data-name="Illustration / braces" xmlns="http://www.w3.org/2000/svg" width="64" height="64" viewBox="0 0 64 64">
    <defs>
        <style>
            .cls-2{fill:none;stroke:#231f20;stroke-linecap:round;stroke-linejoin:round;stroke-miterlimit:10;stroke-width:2px}
        </style>
    </defs>
    <path id="Rectangle_48" data-name="Rectangle 48" style="fill:none" d="M0 0h64v64H0z"/>
    <path id="Path_57" data-name="Path 57" class="cls-2" d="M56.9 20.6A15.048 15.048 0 0 0 43.3 7a14.16 14.16 0 0 0-6.2.8 14.9 14.9 0 0 1-10.2 0 15.808 15.808 0 0 0-6.2-.8 14.984 14.984 0 0 0-10.2 24.5 20.908 20.908 0 0 1 4.2 9.2c.8 4 1.8 8.9 2.5 12.3a5.03 5.03 0 0 0 4.9 4h0a5.131 5.131 0 0 0 4.9-3.8l2.2-8.8a2.971 2.971 0 0 1 5.8 0l2.2 8.8a5.043 5.043 0 0 0 4.9 3.8h0a5.03 5.03 0 0 0 4.9-4c.7-3.4 1.7-8.3 2.5-12.3a21.53 21.53 0 0 1 4.2-9.2 15.089 15.089 0 0 0 3.2-10.9z"/>
    <path id="Path_58" data-name="Path 58" class="cls-2" d="M43 12a23.358 23.358 0 0 1-11 3 23.358 23.358 0 0 1-11-3"/>
    <path id="Path_59" data-name="Path 59" class="cls-2" d="M38 32H26a2.946 2.946 0 0 1-3-3v-6a2.946 2.946 0 0 1 3-3h12a2.946 2.946 0 0 1 3 3v6a2.946 2.946 0 0 1-3 3z"/>
    <path id="Line_34" data-name="Line 34" class="cls-2" transform="translate(41 26)" d="M18 0H0"/>
    <path id="Line_35" data-name="Line 35" class="cls-2" transform="translate(5 26)" d="M18 0H0"/>
    <path id="Line_36" data-name="Line 36" class="cls-2" transform="translate(27 26)" d="M0 0h10"/>
    <path id="Line_37" data-name="Line 37" class="cls-2" transform="translate(29 24)" d="M0 0v4"/>
    <path id="Line_38" data-name="Line 38" class="cls-2" transform="translate(35 24)" d="M0 0v4"/>
</svg>
