<svg id="Illustration_Cavity" data-name="Illustration / Cavity" xmlns="http://www.w3.org/2000/svg" width="64" height="64" viewBox="0 0 64 64">
    <defs>
        <clipPath id="clip-path">
            <path id="Rectangle_119" data-name="Rectangle 119" style="stroke-width:2px;stroke:#707070;fill:none" d="M0 0h56.001v51H0z"/>
        </clipPath>
        <style>
            .cls-4{fill:none;stroke-width:2px;stroke:#231f20;stroke-linecap:round;stroke-linejoin:round}
        </style>
    </defs>
    <path id="Rectangle_48" data-name="Rectangle 48" style="fill:none" d="M0 0h64v64H0z"/>
    <g id="Group_134" data-name="Group 134" transform="translate(7 6)">
        <g id="Group_133" data-name="Group 133" style="clip-path:url(#clip-path)">
            <path id="Path_899" data-name="Path 899" class="cls-4" d="M42.561 23.89a12.476 12.476 0 0 1-2.43 4.7 17.862 17.862 0 0 0-3.56 7.75c-.68 3.33-1.53 7.47-2.12 10.31a4.2 4.2 0 0 1-8.19.15l-1.81-7.41a2.523 2.523 0 0 0-4.9 0l-1.81 7.41a4.2 4.2 0 0 1-8.19-.15c-.59-2.84-1.44-6.98-2.12-10.31a17.862 17.862 0 0 0-3.56-7.75 12.527 12.527 0 0 1-2.82-9.13 12.671 12.671 0 0 1 11.42-11.41 12.5 12.5 0 0 1 5.21.63 13.19 13.19 0 0 0 8.64 0 12.5 12.5 0 0 1 5.21-.63 12.212 12.212 0 0 1 3.81.97 12.67 12.67 0 0 1 7.61 10.44 12.486 12.486 0 0 1-.39 4.43z"/>
            <path id="Path_900" data-name="Path 900" class="cls-4" d="M31.241 12.2A19.726 19.726 0 0 1 22 14.72a19.726 19.726 0 0 1-9.24-2.52"/>
            <path id="Path_901" data-name="Path 901" class="cls-4" d="M42.561 23.89A9.992 9.992 0 0 1 34 14a9.819 9.819 0 0 1 1.34-4.98 12.67 12.67 0 0 1 7.61 10.44 12.486 12.486 0 0 1-.389 4.43z"/>
            <path id="Line_49" data-name="Line 49" class="cls-4" transform="translate(40.001 1)" d="M0 0v5"/>
            <path id="Line_50" data-name="Line 50" class="cls-4" transform="translate(50.001 16)" d="M0 0h5"/>
            <path id="Line_51" data-name="Line 51" class="cls-4" transform="translate(47.072 23.071)" d="m0 0 3.536 3.536"/>
            <path id="Line_52" data-name="Line 52" class="cls-4" transform="translate(47.072 5.393)" d="M0 3.536 3.536 0"/>
        </g>
    </g>
</svg>
