<svg id="Illustration_location" data-name="Illustration / location" xmlns="http://www.w3.org/2000/svg" width="64" height="64" viewBox="0 0 64 64">
    <defs>
        <style>
            .cls-3{fill:none;stroke:#000;stroke-width:2px;stroke-linecap:round;stroke-linejoin:round}
        </style>
    </defs>
    <path id="Rectangle_49" data-name="Rectangle 49" style="fill:none" d="M0 0h64v64H0z"/>
    <g id="location" transform="translate(3 3)">
        <path id="Path_72" data-name="Path 72" d="M35.3 47.481c10.75.625 18.7 2.85 18.7 5.5 0 3.125-11.2 5.675-25 5.675s-25-2.55-25-5.675c0-2.675 8.125-4.925 19.05-5.525" transform="translate(0 -4.656)" style="stroke-miterlimit:10;stroke:#000;stroke-width:2px;fill:none"/>
        <path id="Path_73" data-name="Path 73" class="cls-3" d="M45.911 20.19c0 7.941-6.433 21.027-13.269 26.379a3.989 3.989 0 0 1-5-.112C21.2 40.9 14.19 28.124 14.19 20.19A16.028 16.028 0 0 1 30.05 4a16.028 16.028 0 0 1 15.861 16.19z" transform="translate(-1.092)"/>
        <path id="Path_74" data-name="Path 74" class="cls-3" d="M29.072 30.9a1.621 1.621 0 0 1 3.238 0c.095 3.911 1.354 7 2.887 7 1.6 0 2.892-3.339 2.892-7.462a18.643 18.643 0 0 0-.124-2.172 3.575 3.575 0 0 1 .885-2.758 8.417 8.417 0 0 0 1.95-5.514c0-4.21-2.816-7.619-6.3-7.619a5.321 5.321 0 0 0-2.154.457 3.856 3.856 0 0 1-3.105 0 5.321 5.321 0 0 0-2.154-.457c-3.474 0-6.3 3.409-6.3 7.619a8.462 8.462 0 0 0 1.824 5.361 3.556 3.556 0 0 1 .822 2.7 18.478 18.478 0 0 0-.151 2.381c0 4.123 1.3 7.462 2.892 7.462 1.544.002 2.803-3.086 2.898-6.998z" transform="translate(-1.8 -.897)"/>
        <path id="Path_75" data-name="Path 75" class="cls-3" d="M39.144 20.438a7.641 7.641 0 0 0-2.6-3.369" transform="translate(-3.486 -1.4)"/>
    </g>
</svg>
