<svg id="Illustration_Plaque-Tartar" data-name="Illustration / Plaque-Tartar" xmlns="http://www.w3.org/2000/svg" width="64" height="64" viewBox="0 0 64 64">
    <defs>
        <clipPath id="clip-path">
            <path id="Rectangle_120" data-name="Rectangle 120" style="stroke-width:2px;stroke:#707070;fill:none" d="M0 0h53.999v51.998H0z"/>
        </clipPath>
        <style>
            .cls-4{fill:none;stroke-width:2px;stroke:#231f20;stroke-linecap:round;stroke-linejoin:round}
        </style>
    </defs>
    <path id="Rectangle_47" data-name="Rectangle 47" style="fill:none" d="M0 0h64v64H0z"/>
    <g id="Group_136" data-name="Group 136" transform="translate(5 6)">
        <g id="Group_135" data-name="Group 135" style="clip-path:url(#clip-path)">
            <path id="Path_902" data-name="Path 902" class="cls-4" d="M49.739 10.008a.97.97 0 0 0-.17-.01h-1.69a2.326 2.326 0 0 0-1.69.81l-1.57 1.57a2.05 2.05 0 0 0-.62 1.47A2.117 2.117 0 0 1 41.879 16h-.76A2.121 2.121 0 0 0 39 18.118v.47a3.422 3.422 0 0 0 .92 2.33 3.64 3.64 0 0 1 1.08 2.49v.18A3.415 3.415 0 0 0 42 26l1 1a3.415 3.415 0 0 0 2.41 1h.46a22.289 22.289 0 0 0-2.52 6.74c-.82 3.96-1.83 8.89-2.53 12.28a5 5 0 0 1-9.75.17l-2.16-8.82a3 3 0 0 0-5.82 0l-2.16 8.82a5 5 0 0 1-9.75-.17c-.63-3.05-1.51-7.35-2.27-11.06 1.58.01 3.49.01 3.49.01a2.125 2.125 0 0 0 1.48-.63l2.3-2.29a2.3 2.3 0 0 0 .62-1.76v-2.4a1.875 1.875 0 0 0-.62-1.33 2.125 2.125 0 0 1 0-3l.54-.53a2.106 2.106 0 0 0 .01-2.99l-.72-.72a2.119 2.119 0 0 0-1.5-.62h-1.07a2.119 2.119 0 0 1-1.5-.62l-.88-.88a2.119 2.119 0 0 0-1.5-.62H7.079a2.085 2.085 0 0 0-1.5.62l-3.47 3.47a15 15 0 0 1 18.75-19.86 15.619 15.619 0 0 0 10.28 0 14.979 14.979 0 0 1 18.6 8.2z"/>
            <path id="Path_903" data-name="Path 903" class="cls-4" d="M37 6a23.483 23.483 0 0 1-11 3 23.483 23.483 0 0 1-11-3"/>
            <path id="Path_904" data-name="Path 904" class="cls-4" d="M53 16.008a16.893 16.893 0 0 1-3.88 10.78l-.01.01a3.2 3.2 0 0 1-2.46 1.2h-1.24A3.415 3.415 0 0 1 43 27l-1-1a3.415 3.415 0 0 1-1-2.41v-.18a3.64 3.64 0 0 0-1.08-2.49 3.422 3.422 0 0 1-.92-2.33v-.47A2.121 2.121 0 0 1 41.119 16h.76A2.117 2.117 0 0 0 44 13.848a2.05 2.05 0 0 1 .62-1.47l1.57-1.57a2.326 2.326 0 0 1 1.69-.81h1.69a.97.97 0 0 1 .17.01 3.1 3.1 0 0 1 2.88 2.4 15.5 15.5 0 0 1 .31 2.06c.049.51.07 1.032.07 1.54z"/>
            <path id="Path_905" data-name="Path 905" class="cls-4" d="M16.179 27.558a1.875 1.875 0 0 1 .62 1.33v2.4a2.3 2.3 0 0 1-.62 1.76l-2.3 2.29a2.125 2.125 0 0 1-1.48.63s-1.91 0-3.49-.01h-.17a2.381 2.381 0 0 1-2.28-1.81v-.02a18.535 18.535 0 0 0-3.58-7.34 18.5 18.5 0 0 1-1.35-1.99 2.36 2.36 0 0 1 .35-2.89l.23-.24 3.47-3.47a2.085 2.085 0 0 1 1.5-.62h2.48a2.119 2.119 0 0 1 1.5.62l.88.88a2.119 2.119 0 0 0 1.5.62h1.07a2.119 2.119 0 0 1 1.5.62l.72.72a2.106 2.106 0 0 1-.01 2.99l-.54.53a2.125 2.125 0 0 0 0 3z"/>
        </g>
    </g>
</svg>
