<svg id="Illustration_Root" data-name="Illustration / Root" xmlns="http://www.w3.org/2000/svg" width="64" height="64" viewBox="0 0 64 64">
    <defs>
        <clipPath id="clip-path">
            <path id="Rectangle_121" data-name="Rectangle 121" style="stroke-width:2px;stroke:#707070;fill:none" d="M0 0h52v52H0z"/>
        </clipPath>
        <style>
            .cls-4{fill:none;stroke-width:2px;stroke:#231f20;stroke-linecap:round;stroke-linejoin:round}
        </style>
    </defs>
    <path id="Rectangle_47" data-name="Rectangle 47" style="fill:none" d="M0 0h64v64H0z"/>
    <g id="Group_138" data-name="Group 138" transform="translate(6 6)">
        <g id="Group_137" data-name="Group 137" style="clip-path:url(#clip-path)">
            <path id="Path_906" data-name="Path 906" class="cls-4" d="M46.53 17a12.462 12.462 0 0 1-2.4 4.59 17.862 17.862 0 0 0-3.56 7.75c-.68 3.33-1.53 7.47-2.12 10.31a4.2 4.2 0 0 1-8.19.15l-1.81-7.41a2.523 2.523 0 0 0-4.9 0l-1.81 7.41a4.2 4.2 0 0 1-8.19-.15c-.59-2.84-1.44-6.98-2.12-10.31a17.862 17.862 0 0 0-3.56-7.75 12.581 12.581 0 0 1-2.82-9.13A12.671 12.671 0 0 1 16.47 1.05a12.5 12.5 0 0 1 5.21.63 13.19 13.19 0 0 0 8.64 0 12.5 12.5 0 0 1 5.21-.63 12.671 12.671 0 0 1 11.42 11.41 12.4 12.4 0 0 1-.42 4.54z"/>
            <path id="Path_907" data-name="Path 907" class="cls-4" d="m34 39-1.664-7.56a6.524 6.524 0 0 0-12.67-.007L18 39s-1.972-7.135-2.65-10.46a21.712 21.712 0 0 0-4.393-9.5 8.575 8.575 0 0 1-1.922-6.23 8.668 8.668 0 0 1 7.786-7.776c.262-.022.527-.034.788-.034a8.378 8.378 0 0 1 2.758.458 17.2 17.2 0 0 0 5.633.95 17.208 17.208 0 0 0 5.626-.947A8.378 8.378 0 0 1 34.391 5c.261 0 .526.012.793.035a8.667 8.667 0 0 1 7.782 7.778 8.394 8.394 0 0 1-.278 3.077 8.5 8.5 0 0 1-1.64 3.15 21.655 21.655 0 0 0-4.393 9.481C35.972 31.865 34 39 34 39z"/>
            <path id="Path_908" data-name="Path 908" class="cls-4" d="M51 17v17a17 17 0 0 1-17 17H18A17 17 0 0 1 1 34V17h4.47a12.462 12.462 0 0 0 2.4 4.59 17.862 17.862 0 0 1 3.56 7.75c.68 3.33 1.53 7.47 2.12 10.31a4.2 4.2 0 0 0 8.19.15l1.81-7.41a2.523 2.523 0 0 1 4.9 0l1.763 7.216a4.358 4.358 0 0 0 3.818 3.383 4.2 4.2 0 0 0 2.959-.929 4.16 4.16 0 0 0 1.46-2.41c.59-2.84 1.44-6.98 2.12-10.31a17.862 17.862 0 0 1 3.56-7.75 12.462 12.462 0 0 0 2.4-4.59z"/>
            <path id="Line_53" data-name="Line 53" class="cls-4" transform="translate(18 39)" d="M0 7V0"/>
            <path id="Line_54" data-name="Line 54" class="cls-4" transform="translate(18 49)" d="M0 2V0"/>
            <path id="Line_55" data-name="Line 55" class="cls-4" transform="translate(34 39)" d="M0 6V0"/>
            <path id="Line_56" data-name="Line 56" class="cls-4" transform="translate(34 48)" d="M0 3V0"/>
            <path id="Path_909" data-name="Path 909" class="cls-4" d="M18 38V23l2-5-3-5"/>
            <path id="Path_910" data-name="Path 910" class="cls-4" d="M35 38V23l-2-5 3-5"/>
            <path id="Line_57" data-name="Line 57" class="cls-4" transform="translate(18.15 13)" d="M1.85 0 0 1.92"/>
            <path id="Line_58" data-name="Line 58" class="cls-4" transform="translate(17 18)" d="M2.65.88 0 0"/>
            <path id="Line_59" data-name="Line 59" class="cls-4" transform="translate(18 24)" d="m0 1 2-1"/>
            <path id="Line_60" data-name="Line 60" class="cls-4" transform="translate(33 13)" d="M1.85 1.92 0 0"/>
            <path id="Line_61" data-name="Line 61" class="cls-4" transform="translate(34 19)" d="m0 1 2-1"/>
        </g>
    </g>
</svg>
