<svg id="Illustration_Fluor" data-name="Illustration / Fluor" xmlns="http://www.w3.org/2000/svg" width="64" height="64" viewBox="0 0 64 64">
    <defs>
        <clipPath id="clip-path">
            <path id="Rectangle_122" data-name="Rectangle 122" style="stroke-width:2px;stroke:#707070;fill:none" d="M0 0h52v52.003H0z"/>
        </clipPath>
        <style>
            .cls-4{fill:none;stroke-width:2px;stroke:#231f20;stroke-linecap:round;stroke-linejoin:round}
        </style>
    </defs>
    <path id="Rectangle_47" data-name="Rectangle 47" style="fill:none" d="M0 0h64v64H0z"/>
    <g id="Group_140" data-name="Group 140" transform="translate(6 6)">
        <g id="Group_139" data-name="Group 139" style="clip-path:url(#clip-path)">
            <path id="Path_911" data-name="Path 911" class="cls-4" d="M51 40.122a29.7 29.7 0 0 1-.74 7.378 4.706 4.706 0 0 1-3.8 3.438 5 5 0 0 1-.78.062 4.751 4.751 0 0 1-4.73-5c.03-.735.05-1.541.05-2.409a52.629 52.629 0 0 0-3-18.1v-.01a2.051 2.051 0 0 0 1.06-2.7C35.87 15.51 31.18 11.387 26 11.387s-9.87 4.123-13.06 11.388a1.96 1.96 0 0 0-.17.816A2.035 2.035 0 0 0 14 25.479v.01a52.629 52.629 0 0 0-3 18.1c0 .868.02 1.674.05 2.409a4.744 4.744 0 0 1-7.92 3.775A4.528 4.528 0 0 1 1.74 47.5 29.7 29.7 0 0 1 1 40.122a52.775 52.775 0 0 1 2.02-14.633v-.01c.01.01.03.01.05.021a1.97 1.97 0 0 0 2.44-1.276C9.45 12.53 17.35 5.081 26 5.081s16.55 7.449 20.49 19.143a1.97 1.97 0 0 0 2.44 1.276c.02-.011.04-.011.05-.021v.01A52.775 52.775 0 0 1 51 40.122z"/>
            <path id="Path_912" data-name="Path 912" class="cls-4" d="m38 25.48-.06.031a1.992 1.992 0 0 1-2.54-1.082c-2.48-5.653-5.93-8.959-9.4-8.959s-6.92 3.306-9.4 8.959a1.992 1.992 0 0 1-2.54 1.082L14 25.48a2.037 2.037 0 0 1-1.23-1.888 1.96 1.96 0 0 1 .17-.816c3.19-7.265 7.88-11.388 13.06-11.388s9.87 4.123 13.06 11.388A2.051 2.051 0 0 1 38 25.48z"/>
            <path id="Path_913" data-name="Path 913" class="cls-4" d="M48.98 25.48c-.01.01-.03.01-.05.02a1.97 1.97 0 0 1-2.44-1.275C42.55 12.531 34.65 5.082 26 5.082S9.45 12.531 5.51 24.225A1.97 1.97 0 0 1 3.07 25.5c-.02-.01-.04-.01-.05-.02a2.039 2.039 0 0 1-1.39-1.949 2.245 2.245 0 0 1 .11-.663C6.25 9.511 15.61 1 26 1s19.75 8.511 24.26 21.868a2.056 2.056 0 0 1-1.28 2.612z"/>
        </g>
    </g>
</svg>
