<svg id="Illustration_tooth_insurance" data-name="Illustration / tooth_insurance" xmlns="http://www.w3.org/2000/svg" width="64" height="64" viewBox="0 0 64 64">
    <defs>
        <style>
            .cls-2{fill:none;stroke:#231f20;stroke-linecap:round;stroke-linejoin:round;stroke-miterlimit:10;stroke-width:2px}
        </style>
    </defs>
    <path id="Rectangle_47" data-name="Rectangle 47" style="fill:none" d="M0 0h64v64H0z"/>
    <path id="Path_53" data-name="Path 53" class="cls-2" d="M53.6 31.5c-.6.8-1.2 1.6-1.7 2.4L49 33l-9 3v8.8a12.838 12.838 0 0 0 5.5 10.7l-.4.4a5.1 5.1 0 0 1-8.1-2.7l-2.2-8.8a2.994 2.994 0 0 0-5.8 0l-2.2 8.8A5.258 5.258 0 0 1 25 56a4.887 4.887 0 0 1-3.1 1.1 5.03 5.03 0 0 1-4.9-4c-.7-3.4-1.7-8.3-2.5-12.3a21.53 21.53 0 0 0-4.2-9.2 15.482 15.482 0 0 1-3.2-11A15.048 15.048 0 0 1 20.7 7a14.16 14.16 0 0 1 6.2.8 15.185 15.185 0 0 0 10.3 0 15.808 15.808 0 0 1 6.2-.8A14.961 14.961 0 0 1 57 20.6a15.2 15.2 0 0 1-3.4 10.9z"/>
    <path id="Path_54" data-name="Path 54" class="cls-2" d="M43 12a23.358 23.358 0 0 1-11 3 23.358 23.358 0 0 1-11-3"/>
    <path id="Path_55" data-name="Path 55" class="cls-2" d="M58 36v8.8c0 5.9-3.8 11-9 12.2a10.034 10.034 0 0 1-3.5-1.5A12.838 12.838 0 0 1 40 44.8V36l9-3 2.9 1z"/>
    <path id="Path_56" data-name="Path 56" class="cls-2" d="m53 42-5 5-2-2"/>
</svg>
