<svg id="Illustration_Patient" data-name="Illustration / Patient" xmlns="http://www.w3.org/2000/svg" width="48" height="48" viewBox="0 0 48 48">
    <defs>
        <style>
            .cls-2{fill:none;stroke:#231f20;stroke-linecap:round;stroke-linejoin:round;stroke-miterlimit:10;stroke-width:1.5px}
        </style>
    </defs>
    <path id="Rectangle_24" data-name="Rectangle 24" style="fill:none" d="M0 0h48v48H0z"/>
    <path id="Path_23" data-name="Path 23" class="cls-2" d="M42.5 57.5H11l.3-1.125A12.938 12.938 0 0 1 23.75 47h0a3 3 0 0 0 6 0h0a12.938 12.938 0 0 1 12.45 9.375z" transform="translate(-2.75 -11.75)"/>
    <path id="Path_24" data-name="Path 24" class="cls-2" d="M34 40.4v4.95a3 3 0 1 1-6 0V40.4a10.225 10.225 0 0 0 6 0z" transform="translate(-7 -10.1)"/>
    <path id="Path_25" data-name="Path 25" class="cls-2" d="M40 10.5v6.75a10.164 10.164 0 0 1-1.5-.15 7.886 7.886 0 0 1-3.825-2.025A7.476 7.476 0 0 1 32.5 9.75v-.375a13.27 13.27 0 0 1-2.7 3.75 14.233 14.233 0 0 1-10.05 4.125H16V12a9.026 9.026 0 0 1 9-9h7.5a9.233 9.233 0 0 1 1.5.15 7.483 7.483 0 0 1 6 7.35z" transform="translate(-4 -.75)"/>
    <path id="Path_26" data-name="Path 26" class="cls-2" d="M39 19.2v3.9a10.023 10.023 0 0 1-.45 3 10.4 10.4 0 0 1-7.05 7.05 10.225 10.225 0 0 1-6 0 15.027 15.027 0 0 1-1.95-.75 3.563 3.563 0 0 1-1.8.45A3.714 3.714 0 0 1 18 29.1a3.2 3.2 0 0 1 .75-2.175c-.075-.3-.225-.525-.3-.825a10.023 10.023 0 0 1-.45-3v-3.75h2.25a13.988 13.988 0 0 0 10.05-4.2A13.693 13.693 0 0 0 33 11.4v.45a7.476 7.476 0 0 0 2.175 5.325A7.886 7.886 0 0 0 39 19.2z" transform="translate(-4.5 -2.85)"/>
    <path id="Path_27" data-name="Path 27" class="cls-2" d="M17.2 28.75h-.825A3.361 3.361 0 0 1 13 25.375a3.469 3.469 0 0 1 .975-2.4 3.336 3.336 0 0 1 2.4-.975h.375v3.75a10.023 10.023 0 0 0 .45 3z" transform="translate(-3.25 -5.5)"/>
    <path id="Path_28" data-name="Path 28" class="cls-2" d="M49.6 25.375a3.469 3.469 0 0 1-.975 2.4 3.336 3.336 0 0 1-2.4.975H45.4a10.023 10.023 0 0 0 .45-3V22h.375a3.361 3.361 0 0 1 3.375 3.375z" transform="translate(-11.35 -5.5)"/>
    <path id="Line_1" data-name="Line 1" class="cls-2" transform="translate(9.75 27.75)" d="M0 0h1.5"/>
    <path id="Line_2" data-name="Line 2" class="cls-2" transform="translate(11.25 30.375)" d="M0 1.125 1.125 0"/>
    <path id="Line_3" data-name="Line 3" class="cls-2" transform="translate(15 31.5)" d="M0 0v1.5"/>
    <path id="Path_29" data-name="Path 29" class="cls-2" d="M23.5 30a3.361 3.361 0 0 1 3.375 3.375" transform="translate(-5.875 -7.5)"/>
</svg>
