<svg id="Illustration_Icon_Emergency" data-name="Illustration / Icon / Emergency" xmlns="http://www.w3.org/2000/svg" width="64" height="64" viewBox="0 0 64 64">
    <defs>
        <clipPath id="clip-path">
            <path id="Rectangle_145" data-name="Rectangle 145" class="cls-1" d="M0 0h57.248v51.999H0z"/>
        </clipPath>
        <style>
            .cls-1{fill:none}.cls-3{fill:#231f20}
        </style>
    </defs>
    <path id="Rectangle_47" data-name="Rectangle 47" class="cls-1" d="M0 0h64v64H0z"/>
    <g id="Group_193" data-name="Group 193" transform="translate(4 6)">
        <g id="Group_192" data-name="Group 192" style="clip-path:url(#clip-path)">
            <path id="Path_1031" data-name="Path 1031" class="cls-3" d="M35.928 52a5.99 5.99 0 0 1-5.828-4.572l-2.16-8.821a1.995 1.995 0 0 0-3.877 0l-2.163 8.82a5.956 5.956 0 0 1-2.12 3.3 6.007 6.007 0 0 1-9.58-3.5l-1-4.836c-.51-2.48-1.055-5.13-1.535-7.449a19.9 19.9 0 0 0-4.022-8.786A15.934 15.934 0 0 1 .062 14.563 16 16 0 0 1 21.183.864a14.577 14.577 0 0 0 9.628 0 15.969 15.969 0 0 1 6.624-.8 16.141 16.141 0 0 1 14.5 14.5A16.714 16.714 0 0 1 52 16.337a1 1 0 0 1-1.562.81 11 11 0 1 0-7.656 20 1 1 0 0 1 .847 1.195c-.4 1.928-.809 3.914-1.182 5.732l-.647 3.148A5.994 5.994 0 0 1 35.928 52M26 35.082a3.936 3.936 0 0 1 3.882 3.052l2.159 8.818a4 4 0 0 0 7.8-.135l.648-3.145c.309-1.5.641-3.121.973-4.726a13 13 0 1 1 8.465-24.4A14.122 14.122 0 0 0 37.26 2.056a13.98 13.98 0 0 0-5.8.7 16.553 16.553 0 0 1-10.932 0A13.992 13.992 0 0 0 5.189 24.883a21.84 21.84 0 0 1 4.438 9.656c.48 2.317 1.026 4.968 1.536 7.449l.995 4.829a4 4 0 0 0 7.8.138l2.161-8.823A3.934 3.934 0 0 1 26 35.082"/>
            <path id="Path_1032" data-name="Path 1032" class="cls-3" d="M28 10a24.309 24.309 0 0 1-11.52-3.146 1 1 0 0 1 1.04-1.708A22.669 22.669 0 0 0 28 8a22.553 22.553 0 0 0 10.48-2.854 1 1 0 0 1 1.04 1.708A24.309 24.309 0 0 1 28 10"/>
            <path id="Path_1033" data-name="Path 1033" class="cls-3" d="M46.5 34H42a1 1 0 0 1-1-1v-3.5h-3.5a1 1 0 0 1-1-1V24a1 1 0 0 1 1-1H41v-3.5a1 1 0 0 1 1-1h4.5a1 1 0 0 1 1 1V23H51a1 1 0 0 1 1 1v4.5a1 1 0 0 1-1 1h-3.5V33a1 1 0 0 1-1 1M43 32h2.5v-3.5a1 1 0 0 1 1-1H50V25h-3.5a1 1 0 0 1-1-1v-3.5H43V24a1 1 0 0 1-1 1h-3.5v2.5H42a1 1 0 0 1 1 1z"/>
            <path id="Path_1034" data-name="Path 1034" class="cls-3" d="M44.248 39.249a13.006 13.006 0 1 1 13-13 13.073 13.073 0 0 1-13 13m0-24a11 11 0 0 0-1.468 21.9 11.151 11.151 0 0 0 1.468.1 11 11 0 1 0 0-22"/>
        </g>
    </g>
</svg>
