<svg id="Illustration_dentist" data-name="Illustration / dentist" xmlns="http://www.w3.org/2000/svg" width="64" height="64" viewBox="0 0 64 64">
    <defs>
        <style>
            .cls-1,.cls-3{fill:none}.cls-2{fill:transparent}.cls-2,.cls-3{stroke:#231f20;stroke-linecap:round;stroke-linejoin:round;stroke-miterlimit:10;stroke-width:2px}
        </style>
    </defs>
    <path id="Rectangle_25" data-name="Rectangle 25" class="cls-1" d="M0 0h64v64H0z"/>
    <path id="Rectangle_26" data-name="Rectangle 26" class="cls-1" d="M0 0h64v64H0z"/>
    <path id="Path_30" data-name="Path 30" class="cls-2" d="M24.2 47.4 21 53l3 2-2.6 3.9.6 2.1H11l.4-1.5a17.43 17.43 0 0 1 12.8-12.1z"/>
    <path id="Path_31" data-name="Path 31" class="cls-2" d="M35 49.6 32 61l-3-11.4a3.914 3.914 0 0 0 6 0z"/>
    <path id="Path_32" data-name="Path 32" class="cls-2" d="m42 61 .6-2.1L40 55l3-2-3.2-5.6a17.974 17.974 0 0 1 6.6 3 17.5 17.5 0 0 1 6.2 9L53 61z"/>
    <path id="Path_33" data-name="Path 33" class="cls-2" d="M36 40.4V46l-1 3.6h0a3.914 3.914 0 0 1-6 0L28 46v-5.6a13.633 13.633 0 0 0 8 0z"/>
    <path id="Path_34" data-name="Path 34" class="cls-2" d="M32.7 17.9A18.5 18.5 0 0 1 21 22h-5v-5h13a5.142 5.142 0 0 0 3 1 1.7 1.7 0 0 0 .7-.1z"/>
    <path id="Path_35" data-name="Path 35" class="cls-2" d="M48 17v5a13.552 13.552 0 0 1-2-.2 10.514 10.514 0 0 1-5.1-2.7 11.6 11.6 0 0 1-1.6-2.1H48z"/>
    <path id="Path_36" data-name="Path 36" class="cls-2" d="M46 21.8V27a17.373 17.373 0 0 1-.5 3.9 14.58 14.58 0 0 1-.7 1.9c-.1.2-.2.5-.3.7-.1.3-.3.5-.4.8-.1.2-.3.4-.4.6s-.2.3-.3.5l-.1.1a1.38 1.38 0 0 1-.3.4 12.606 12.606 0 0 1-2 2c-.1.1-.3.2-.4.3a8.342 8.342 0 0 1-1.2.8c-.2.1-.3.2-.5.3-.3.1-.5.3-.8.4-.2.1-.3.2-.5.2-.5.2-1.1.4-1.6.6-.2.1-.5.1-.8.2h0c-.3.1-.7.1-1 .2-.3 0-.6.1-1 .1H31c-.3 0-.6-.1-1-.1a3.553 3.553 0 0 1-1-.2h0c-.3-.1-.5-.1-.8-.2a3.582 3.582 0 0 1-1.1-.4c-.2-.1-.4-.1-.5-.2a11.731 11.731 0 0 1-1.1-.5 14.038 14.038 0 0 1-6.5-7.3c0-.1-.1-.2-.1-.3-.1-.2-.1-.4-.2-.6 0-.1 0-.1-.1-.2a2.958 2.958 0 0 1-.2-1c-.1-.3-.1-.6-.2-1a6.478 6.478 0 0 1-.2-2v-5h3a18.5 18.5 0 0 0 11.7-4.1A5.835 5.835 0 0 0 35 17h4.3a8.341 8.341 0 0 0 1.6 2.1 10.514 10.514 0 0 0 5.1 2.7z"/>
    <path id="Path_37" data-name="Path 37" class="cls-2" d="M18.6 31h-1.1a4.481 4.481 0 0 1-4.5-4.5 4.626 4.626 0 0 1 1.3-3.2 4.448 4.448 0 0 1 3.2-1.3h.5v5a13.364 13.364 0 0 0 .6 4z"/>
    <path id="Path_38" data-name="Path 38" class="cls-2" d="M51 26.5a4.626 4.626 0 0 1-1.3 3.2 4.448 4.448 0 0 1-3.2 1.3h-1.1a13.364 13.364 0 0 0 .6-4v-5h.5a4.481 4.481 0 0 1 4.5 4.5z"/>
    <path id="Path_39" data-name="Path 39" class="cls-2" d="M49 15v2H35a5.068 5.068 0 0 0 2-4 5 5 0 0 0-10 0 5.068 5.068 0 0 0 2 4H15v-2A12.035 12.035 0 0 1 27 3h10a12.052 12.052 0 0 1 9.2 4.3h0A11.754 11.754 0 0 1 49 15z"/>
    <path id="Path_40" data-name="Path 40" class="cls-2" d="M37 13a5.068 5.068 0 0 1-2 4 4.648 4.648 0 0 1-2.3.9 1.7 1.7 0 0 1-.7.1 5.142 5.142 0 0 1-3-1 5.068 5.068 0 0 1-2-4 5 5 0 0 1 10 0z"/>
    <path id="Path_41" data-name="Path 41" class="cls-2" d="M34 41h-4a6.957 6.957 0 0 1-7-7v-5h18v5a6.957 6.957 0 0 1-7 7z"/>
    <path id="Line_4" data-name="Line 4" class="cls-3" transform="translate(17 22)" d="m0 0 6 7"/>
    <path id="Line_5" data-name="Line 5" class="cls-3" transform="translate(41 22)" d="M6 0 0 7"/>
    <path id="Path_42" data-name="Path 42" class="cls-2" d="M32 61H22l-.6-2.1L24 55l-3-2 3.2-5.6.8-1.4h3l1 3.6z"/>
    <path id="Path_43" data-name="Path 43" class="cls-2" d="m40 55 2.6 3.9L42 61H32l3-11.4h0l1-3.6h3l.8 1.4L43 53z"/>
</svg>
