<svg id="Iluustration_Implant" data-name="Iluustration / Implant" xmlns="http://www.w3.org/2000/svg" width="64" height="64" viewBox="0 0 64 64">
    <defs>
        <clipPath id="clip-path">
            <path id="Rectangle_126" data-name="Rectangle 126" class="cls-1" d="M0 0h33v55H0z"/>
        </clipPath>
        <style>
            .cls-1{fill:none}
        </style>
    </defs>
    <path id="Rectangle_47" data-name="Rectangle 47" class="cls-1" d="M0 0h64v64H0z"/>
    <g id="Group_148" data-name="Group 148" transform="translate(16 5)">
        <g id="Group_147" data-name="Group 147" style="clip-path:url(#clip-path)">
            <path id="Path_925" data-name="Path 925" d="M24.478 0a8.48 8.48 0 0 0-3.358.689 11.78 11.78 0 0 1-9.241 0A8.522 8.522 0 0 0 0 8.522a23.173 23.173 0 0 0 2.4 10.239l1.3 4.416a.917.917 0 0 0 .879.656h2.75v4.583a.917.917 0 0 0 .917.917H11v2.133l-2.649-.294-.2 1.822 2.849.317v3.656l-2.649-.294-.2 1.822 2.849.316v3.656l-2.649-.294-.2 1.822 2.849.316v3.656l-2.649-.294-.2 1.822 2.913.324a.184.184 0 0 0 0 .022l1.836 4.582a.917.917 0 0 0 .85.577h5.5a.918.918 0 0 0 .852-.577l1.379-3.448 3.168.352.2-1.822L22 49.188v-3.654l2.648.294.2-1.822L22 43.688v-3.654l2.648.294.2-1.822L22 38.188v-3.654l2.648.294.2-1.822L22 32.688v-3.355h2.75a.917.917 0 0 0 .917-.917v-4.583h2.75a.917.917 0 0 0 .879-.656l1.304-4.416A23.173 23.173 0 0 0 33 8.522 8.532 8.532 0 0 0 24.478 0m-5.849 53.167h-4.258l-1.248-3.119 6.466.719zm1.537-4.182-7.333-.815v-3.655l7.333.815zm0-5.5-7.333-.815v-3.655l7.333.815zm0-5.5-7.333-.815v-3.655l7.333.815zm0-5.5-7.333-.815v-2.337h7.333zm3.667-4.985H9.167v-3.667h14.666zm5.092-9.485a.9.9 0 0 0-.059.149L27.732 22H5.268l-1.135-3.835a.9.9 0 0 0-.059-.149 21.326 21.326 0 0 1-2.241-9.494 6.689 6.689 0 0 1 9.323-6.148 13.627 13.627 0 0 0 10.686 0 6.689 6.689 0 0 1 9.324 6.148 21.326 21.326 0 0 1-2.241 9.493"/>
        </g>
    </g>
</svg>
