<?xml version="1.0" encoding="utf-8"?>
<!-- Generator: Adobe Illustrator 27.0.0, SVG Export Plug-In . SVG Version: 6.00 Build 0)  -->
<svg version="1.1" id="Camada_1" xmlns="http://www.w3.org/2000/svg" xmlns:xlink="http://www.w3.org/1999/xlink" x="0px" y="0px"
	 viewBox="0 0 391.2 76.5" style="enable-background:new 0 0 391.2 76.5;" xml:space="preserve">
<style type="text/css">
	.st0{fill:#FFFFFF;}
	.st1{fill:none;}
	.st2{font-family:'Candara';}
	.st3{font-size:52px;}
</style>
<path id="XMLID_40_" class="st0" d="M43.2,36.7l-0.8,0.7c0.5,2.8,1.6,5,3.3,6.8l0.8-0.4L43.2,36.7z"/>
<g id="XMLID_34_">
	<path id="XMLID_39_" class="st0" d="M87.5,20.6v13.8c0,1.1-0.3,2.1-0.9,3.1c-0.6,1-1.7,1.4-3.4,1.4c-1.2,0-2-0.4-2.6-1.2
		c-0.5-0.8-0.8-1.8-0.8-3.1V20.6h-9.3v16.3c0,2.4,0.4,4.4,1.2,5.9c0.8,1.5,2,2.6,3.4,3.3c1.4,0.7,3.1,1,4.9,1c0.6,0,1.4-0.1,2.3-0.3
		c0.9-0.2,1.8-0.6,2.8-1.1c0.9-0.5,1.7-1.2,2.4-2l0.3,2.7h9V20.6H87.5z"/>
	<path id="XMLID_35_" class="st0" d="M62.2,22c-1.9-1.1-4.1-1.6-6.5-1.6c-2.3,0-4.3,0.4-6,1.2c-1.7,0.8-3.1,1.9-4.2,3.2
		c-1.1,1.3-2,2.8-2.5,4.5c-0.6,1.7-0.8,3.4-0.8,5.1c0,1.1,0.1,2.1,0.2,3.1l0.3-0.2l-0.3,0.2L40,39.5l0,0c-0.4,0.3-0.9,0.6-1.5,0.8
		c-0.6,0.3-1.1,0.4-1.7,0.4c-2,0-3-1.1-3-3.2v-9.2h6.4v-7.2h-6.4v-8.6h-9.3v8.6h-3.8v7.2h3.8v7.8c0,2.3,0.3,4.4,1,6.2
		c0.7,1.8,1.8,3.2,3.4,4.2c1.6,1,3.8,1.5,6.6,1.5c1.5,0,3-0.3,4.4-0.8c1.4-0.5,2.7-1.2,3.9-2.1l2-1.1l0,0c0.1,0.1,0.2,0.2,0.3,0.2
		c2.6,2.4,6.2,3.6,11,3.6c2.6,0,4.9-0.3,6.7-1c1.9-0.7,3.2-1.3,4.1-1.7l-2.9-6.1c-0.7,0.4-1.7,0.9-3,1.3c-1.3,0.4-2.8,0.6-4.4,0.6
		c-1.6,0-2.9-0.2-3.8-0.7c-0.9-0.4-1.6-1-2-1.6c-0.4-0.6-0.6-1.3-0.6-1.8h17.5v-1.8c0-3.3-0.6-6.1-1.7-8.3
		C65.7,24.7,64.2,23.1,62.2,22z M46.6,43.7l-3.4-7l0,0L46.6,43.7L46.6,43.7z M51.1,31.4c0-0.6,0.2-1.2,0.5-1.8
		c0.3-0.6,0.8-1.2,1.5-1.6c0.7-0.5,1.5-0.7,2.6-0.7c1.1,0,1.9,0.2,2.6,0.7c0.7,0.5,1.2,1,1.5,1.6c0.3,0.6,0.5,1.2,0.5,1.8H51.1z"/>
</g>
<polygon id="XMLID_29_" class="st0" points="72.1,11 61.1,19 62.1,20.3 75.9,16.2 "/>
<polygon id="XMLID_23_" class="st0" points="56.4,5 56.4,18.6 58,18.6 62.8,5 "/>
<path id="XMLID_19_" class="st0" d="M195.8,9.5v16.3c-0.5-0.8-1.1-1.5-1.9-2.3c-0.8-0.8-1.8-1.5-3-2.1c-1.2-0.6-2.8-0.9-4.7-0.9
	c-2.7,0-4.9,0.6-6.6,1.8c-1.7,1.2-3,2.8-3.8,4.9c-0.8,2.1-1.2,4.4-1.2,7c0,2.9,0.6,5.4,1.9,7.4c1.3,2,3,3.6,5.2,4.6
	c2.2,1.1,4.6,1.6,7.3,1.6c1.8,0,3.6-0.2,5.3-0.5c1.7-0.3,3.1-0.7,4.1-1.2V9.5H195.8z M195.8,44.5c-0.5,0.2-1.2,0.4-2.3,0.6
	c-1.1,0.3-2.6,0.4-4.6,0.4c-2.2,0-4.2-0.4-6-1.3c-1.8-0.8-3.1-2.1-4.2-3.8c-1-1.7-1.5-3.8-1.5-6.2c0-2,0.3-3.9,0.9-5.6
	c0.6-1.7,1.6-3.1,2.9-4.1c1.4-1,3.2-1.5,5.4-1.5c1.6,0,3,0.3,4.1,1c1.2,0.7,2.1,1.5,2.9,2.6c0.8,1.1,1.3,2.2,1.7,3.4
	c0.4,1.2,0.6,2.4,0.6,3.4V44.5z"/>
<path id="XMLID_16_" class="st0" d="M151.9,45.7c0-0.5-0.1-1.1-0.1-1.7v-2.1v-12c0-3.3-0.9-5.7-2.7-7.1c-1.8-1.4-4.4-2.1-7.8-2.1
	c-2.3,0-4.3,0.4-5.9,1.1c-1.6,0.8-2.8,1.5-3.5,2.1l1.4,1.8c0.7-0.6,1.6-1.2,2.9-1.8c1.3-0.6,3-0.9,5.1-0.9c2.6,0,4.5,0.5,5.9,1.5
	c1.4,1,2,3,2,5.8v1.5c-0.9-0.2-1.9-0.3-3.2-0.4c-1.2-0.1-2.7-0.2-4.2-0.2c-2.7,0-4.9,0.4-6.6,1.2c-1.7,0.8-2.9,1.9-3.6,3.3
	c-0.8,1.4-1.1,2.9-1.1,4.6c0,2,0.5,3.6,1.4,4.8c0.9,1.1,2.1,1.9,3.5,2.3c1.4,0.4,2.8,0.7,4.3,0.7c1,0,2.1-0.1,3.2-0.4
	c1.2-0.3,2.3-0.8,3.4-1.5c1.1-0.7,2.1-1.8,3.1-3.1c0,1.1,0,1.9,0,2.6c0,0.7,0,1.3,0.1,1.8h2.4L151.9,45.7z M149.4,37.6
	c0,1.3-0.4,2.6-1.3,3.8c-0.8,1.2-2,2.2-3.4,3c-1.4,0.8-3,1.2-4.7,1.2c-2,0-3.6-0.4-4.8-1.3c-1.3-0.9-1.9-2.2-1.9-4.1
	c0-0.6,0.1-1.4,0.3-2.1c0.2-0.8,0.5-1.5,1.1-2.3c0.6-0.7,1.4-1.3,2.6-1.8c1.1-0.5,2.7-0.7,4.6-0.7c1.8,0,3.4,0.1,4.6,0.2
	c1.2,0.1,2.2,0.3,3,0.5V37.6z"/>
<path id="XMLID_14_" class="st0" d="M125.3,41.8l1.8,1.6c-1.1,1.3-2.5,2.4-4.3,3.3c-1.8,0.8-3.8,1.3-6,1.3c-2.5,0-4.8-0.6-6.7-1.8
	c-2-1.2-3.5-2.8-4.6-4.9c-1.1-2.1-1.7-4.4-1.7-7c0-2.6,0.6-4.9,1.7-7c1.1-2.1,2.7-3.7,4.7-4.9c2-1.2,4.2-1.8,6.6-1.8
	c2.3,0,4.3,0.4,5.9,1.2c1.6,0.8,3,1.9,4.1,3.4l-1.9,1.5c-0.9-1.1-2-2-3.3-2.7c-1.3-0.7-2.9-1-4.8-1c-2,0-3.8,0.5-5.3,1.5
	c-1.6,1-2.8,2.4-3.7,4.1c-0.9,1.7-1.3,3.6-1.3,5.7c0,2,0.5,3.9,1.4,5.6c0.9,1.7,2.1,3.1,3.7,4.1c1.6,1,3.3,1.6,5.3,1.6
	c1.9,0,3.6-0.3,5-1C123.3,43.8,124.4,42.9,125.3,41.8"/>
<path id="XMLID_10_" class="st0" d="M170.9,20.6c-0.3,0-0.6,0-0.9,0c-2,0-3.6,0.3-5,1c-1.4,0.7-2.5,1.5-3.3,2.5
	c-0.8,0.9-1.5,1.8-1.9,2.6c0-1.5,0-2.5,0-3.2c0-0.7-0.1-1.4-0.1-2.2h-2.4c0.1,0.8,0.1,1.6,0.1,2.3v3.2v20.5h2.5V33.8
	c0-1.7,0.3-3.3,1-5c0.7-1.7,1.8-3.1,3.2-4.2c1.4-1.1,3.2-1.7,5.4-1.7c0.4,0,0.8,0,1.2,0.1V20.6z"/>
<g id="XMLID_5_">
	
		<rect id="XMLID_00000072994065347666983620000006064256019484645030_" x="201.8" y="10.9" class="st1" width="168.7" height="47.7"/>
	<text transform="matrix(1 0 0 1 204.8684 46.7328)" class="st0 st2 st3">odonto</text>
</g>
<path class="st0" d="M360.1,56.3c-10.5,3.4-44.7,12.4-73.3,11.9c-28.6,0.4-62.8-8.8-73.3-12.1c-0.3-0.1-0.4,1,0,1.2
	c4.4,2.2,34.1,14.5,73.2,14.3c39.1,0.3,68.9-11.8,73.3-14C360.5,57.3,360.4,56.2,360.1,56.3z"/>
</svg>
