<svg id="Illustration_medicine" data-name="Illustration / medicine" xmlns="http://www.w3.org/2000/svg" width="64" height="64" viewBox="0 0 64 64">
    <defs>
        <style>
            .cls-2{fill:none;stroke:#231f20;stroke-linecap:round;stroke-linejoin:round;stroke-miterlimit:10;stroke-width:2px}
        </style>
    </defs>
    <path id="Rectangle_49" data-name="Rectangle 49" style="fill:none" d="M0 0h64v64H0z"/>
    <path id="Path_60" data-name="Path 60" class="cls-2" d="M28 14H14a.945.945 0 0 1-1-1V8a.945.945 0 0 1 1-1h14a.945.945 0 0 1 1 1v5a.945.945 0 0 1-1 1z"/>
    <path id="Path_61" data-name="Path 61" class="cls-2" d="M34 21.8a2.865 2.865 0 0 0-1 2.2v28.5a4.552 4.552 0 0 1-2 .5H11a4.012 4.012 0 0 1-4-4V25.2a5.923 5.923 0 0 1 3.9-5.6L15 18v-4h12v4l4.1 1.5a6.631 6.631 0 0 1 2.9 2.3z"/>
    <path id="Rectangle_50" data-name="Rectangle 50" class="cls-2" transform="translate(7 27)" d="M0 0h22v20H0z"/>
    <path id="Path_62" data-name="Path 62" class="cls-2" d="M23 34.3a3.723 3.723 0 0 0-3.3-3.3 3.887 3.887 0 0 0-1.5.2 3.585 3.585 0 0 1-2.5 0 3.887 3.887 0 0 0-1.5-.2 3.723 3.723 0 0 0-3.3 3.3 3.4 3.4 0 0 0 .8 2.6 5.535 5.535 0 0 1 1 2.2c.2 1 .4 2.1.6 2.9a1.188 1.188 0 0 0 1.2 1h0a1.292 1.292 0 0 0 1.2-.9l.5-2.1a.729.729 0 0 1 1.4 0l.5 2.1a1.2 1.2 0 0 0 1.2.9h0a1.188 1.188 0 0 0 1.2-1c.2-.8.4-2 .6-2.9a5.535 5.535 0 0 1 1-2.2 3.114 3.114 0 0 0 .9-2.6z"/>
    <path id="Path_63" data-name="Path 63" class="cls-2" d="M57 24v30a2.946 2.946 0 0 1-3 3H36a2.946 2.946 0 0 1-3-3V24a2.865 2.865 0 0 1 1-2.2 2.792 2.792 0 0 1 2-.8h18a2.946 2.946 0 0 1 3 3z"/>
    <path id="Path_64" data-name="Path 64" class="cls-2" d="M41 29h-3a2.006 2.006 0 0 1-2-2h0a2.006 2.006 0 0 1 2-2h3a2.006 2.006 0 0 1 2 2h0a2.006 2.006 0 0 1-2 2z"/>
    <path id="Path_65" data-name="Path 65" class="cls-2" d="M52 29h-3a2.006 2.006 0 0 1-2-2h0a2.006 2.006 0 0 1 2-2h3a2.006 2.006 0 0 1 2 2h0a2.006 2.006 0 0 1-2 2z"/>
    <path id="Path_66" data-name="Path 66" class="cls-2" d="M41 37h-3a2.006 2.006 0 0 1-2-2h0a2.006 2.006 0 0 1 2-2h3a2.006 2.006 0 0 1 2 2h0a2.006 2.006 0 0 1-2 2z"/>
    <path id="Path_67" data-name="Path 67" class="cls-2" d="M52 37h-3a2.006 2.006 0 0 1-2-2h0a2.006 2.006 0 0 1 2-2h3a2.006 2.006 0 0 1 2 2h0a2.006 2.006 0 0 1-2 2z"/>
    <path id="Path_68" data-name="Path 68" class="cls-2" d="M41 45h-3a2.006 2.006 0 0 1-2-2h0a2.006 2.006 0 0 1 2-2h3a2.006 2.006 0 0 1 2 2h0a2.006 2.006 0 0 1-2 2z"/>
    <path id="Path_69" data-name="Path 69" class="cls-2" d="M52 45h-3a2.006 2.006 0 0 1-2-2h0a2.006 2.006 0 0 1 2-2h3a2.006 2.006 0 0 1 2 2h0a2.006 2.006 0 0 1-2 2z"/>
    <path id="Path_70" data-name="Path 70" class="cls-2" d="M41 53h-3a2.006 2.006 0 0 1-2-2h0a2.006 2.006 0 0 1 2-2h3a2.006 2.006 0 0 1 2 2h0a2.006 2.006 0 0 1-2 2z"/>
    <path id="Path_71" data-name="Path 71" class="cls-2" d="M52 53h-3a2.006 2.006 0 0 1-2-2h0a2.006 2.006 0 0 1 2-2h3a2.006 2.006 0 0 1 2 2h0a2.006 2.006 0 0 1-2 2z"/>
</svg>
