<svg id="Illustration_Bear" data-name="Illustration / Bear" xmlns="http://www.w3.org/2000/svg" width="64" height="64" viewBox="0 0 64 64">
    <defs>
        <clipPath id="clip-path">
            <path id="Rectangle_130" data-name="Rectangle 130" class="cls-1" d="M0 0h42.153v55H0z"/>
        </clipPath>
        <style>
            .cls-1{fill:none}
        </style>
    </defs>
    <path id="Rectangle_47" data-name="Rectangle 47" class="cls-1" d="M0 0h64v64H0z"/>
    <g id="Group_154" data-name="Group 154" transform="translate(10.924 4.5)">
        <g id="Group_152" data-name="Group 152" style="clip-path:url(#clip-path)">
            <path id="Path_927" data-name="Path 927" d="M.2 23.833c-.2 2.744-.231 8.251-.164 11a21.079 21.079 0 0 0 42.119 0s.026-8.256-.165-11c-.527-7.608-5.912-14.007-13.159-16.865a10.939 10.939 0 0 0-6.82-2.385h-2.48a2.109 2.109 0 0 1-1.809-3.195A.917.917 0 0 0 16.933 0h-.425a5.837 5.837 0 0 0-.708.044 8.207 8.207 0 0 0-7.386 9.7C3.887 13.158.609 18.239.2 23.833M9 11.608a8.275 8.275 0 0 0 7.51 4.892h2.743v-1.833h-2.738a6.445 6.445 0 0 1-6.008-4.167 6.3 6.3 0 0 1 .193-4.946 5.79 5.79 0 0 0 .193 1.795 6.213 6.213 0 0 0 5.981 4.568h3.3a4.589 4.589 0 0 1 4.583 4.583h1.833a6.424 6.424 0 0 0-6.417-6.417h-3.3a4.374 4.374 0 0 1-4.211-3.217 3.984 3.984 0 0 1 2.953-4.933 3.917 3.917 0 0 0 .485 2.484 3.9 3.9 0 0 0 3.43 2h2.48a9.176 9.176 0 0 1 9.167 9.167v.916h1.833v-.917a10.928 10.928 0 0 0-1.22-5.013 19.116 19.116 0 0 1 8.553 16.013v7.333a19.25 19.25 0 1 1-38.5 0v-7.333A19.333 19.333 0 0 1 9 11.608"/>
            <path id="Path_928" data-name="Path 928" d="M12.009 36.917a10.083 10.083 0 0 0 20.167 0 .917.917 0 0 0-.917-.917H12.926a.917.917 0 0 0-.917.917m11 .917h1.833v1.833h-1.833zm-1.833 1.833h-1.834v-1.834h1.833zm-3.667-1.833v2.75a.917.917 0 0 0 .917.917h7.333a.917.917 0 0 0 .917-.917v-2.75h3.616a8.251 8.251 0 0 1-16.4 0z" transform="translate(-1.001 -3)"/>
        </g>
    </g>
</svg>
