<svg id="Illustration_whitening" data-name="Illustration / whitening" xmlns="http://www.w3.org/2000/svg" width="64" height="64" viewBox="0 0 64 64">
    <defs>
        <style>
            .cls-2{fill:none;stroke:#231f20;stroke-linecap:round;stroke-linejoin:round;stroke-miterlimit:10;stroke-width:2px}
        </style>
    </defs>
    <path id="Rectangle_46" data-name="Rectangle 46" style="fill:none" d="M0 0h64v64H0z"/>
    <path id="Path_50" data-name="Path 50" class="cls-2" d="M50.1 38.6a18.046 18.046 0 0 0-3.6 7.8c-.7 3.3-1.5 7.5-2.1 10.3a3.839 3.839 0 0 1-1.5 2.4 3.916 3.916 0 0 1-2.6.9 4.264 4.264 0 0 1-4.1-3.2l-1.8-7.4a2.514 2.514 0 0 0-4.9 0l-1.8 7.4a4.422 4.422 0 0 1-1.5 2.3 3.916 3.916 0 0 1-2.6.9 4.173 4.173 0 0 1-4.1-3.4c-.6-2.8-1.4-7-2.1-10.3a17.959 17.959 0 0 0-3.6-7.8 12.445 12.445 0 0 1-2.8-9.1A12.6 12.6 0 0 1 22.4 18a12.846 12.846 0 0 1 5.2.6 12.7 12.7 0 0 0 8.6 0 11.321 11.321 0 0 1 5.2-.6 12.711 12.711 0 0 1 8.2 4.1 14.309 14.309 0 0 1-1.1 1.5 6.42 6.42 0 0 1-4.6 1.9 6.487 6.487 0 0 1 6.5 6.5 6.42 6.42 0 0 1 1.9-4.6l.1-.1a14.345 14.345 0 0 1 .4 2.2 11.818 11.818 0 0 1-2.7 9.1z"/>
    <path id="Path_51" data-name="Path 51" class="cls-2" d="M41.2 22.2a19.6 19.6 0 0 1-9.2 2.5 19.6 19.6 0 0 1-9.2-2.5"/>
    <path id="Line_16" data-name="Line 16" class="cls-2" transform="translate(3 32)" d="M0 0h3"/>
    <path id="Line_17" data-name="Line 17" class="cls-2" transform="translate(58 32)" d="M0 0h3"/>
    <path id="Line_18" data-name="Line 18" class="cls-2" transform="translate(32 3)" d="M0 0v3"/>
    <path id="Line_19" data-name="Line 19" class="cls-2" transform="translate(6.9 45)" d="M0 1.5 2.6 0"/>
    <path id="Line_20" data-name="Line 20" class="cls-2" transform="translate(54.5 17.5)" d="M0 1.5 2.6 0"/>
    <path id="Line_21" data-name="Line 21" class="cls-2" transform="translate(17.5 6.9)" d="m0 0 1.5 2.6"/>
    <path id="Line_22" data-name="Line 22" class="cls-2" transform="translate(45 6.9)" d="M0 2.6 1.5 0"/>
    <path id="Line_23" data-name="Line 23" class="cls-2" transform="translate(6.9 17.5)" d="m0 0 2.6 1.5"/>
    <path id="Line_24" data-name="Line 24" class="cls-2" transform="translate(54.5 45)" d="m0 0 2.6 1.5"/>
    <path id="Line_25" data-name="Line 25" class="cls-2" transform="translate(3 32)" d="M0 0h3"/>
    <path id="Line_26" data-name="Line 26" class="cls-2" transform="translate(58 32)" d="M0 0h3"/>
    <path id="Line_27" data-name="Line 27" class="cls-2" transform="translate(32 3)" d="M0 0v3"/>
    <path id="Line_28" data-name="Line 28" class="cls-2" transform="translate(6.9 45)" d="M0 1.5 2.6 0"/>
    <path id="Line_29" data-name="Line 29" class="cls-2" transform="translate(54.5 17.5)" d="M0 1.5 2.6 0"/>
    <path id="Line_30" data-name="Line 30" class="cls-2" transform="translate(17.5 6.9)" d="m0 0 1.5 2.6"/>
    <path id="Line_31" data-name="Line 31" class="cls-2" transform="translate(45 6.9)" d="M0 2.6 1.5 0"/>
    <path id="Line_32" data-name="Line 32" class="cls-2" transform="translate(6.9 17.5)" d="m0 0 2.6 1.5"/>
    <path id="Line_33" data-name="Line 33" class="cls-2" transform="translate(54.5 45)" d="m0 0 2.6 1.5"/>
    <path id="Path_52" data-name="Path 52" class="cls-2" d="M57 25.5a6.713 6.713 0 0 0-4.5 1.8h0l-.1.1a6.42 6.42 0 0 0-1.9 4.6 6.487 6.487 0 0 0-6.5-6.5 6.42 6.42 0 0 0 4.6-1.9 5.826 5.826 0 0 0 1.1-1.5 6.5 6.5 0 0 0 .8-3.1 6.487 6.487 0 0 0 6.5 6.5z"/>
</svg>
