<svg id="Illustation_Radiography" data-name="Illustation / Radiography" xmlns="http://www.w3.org/2000/svg" width="64" height="64" viewBox="0 0 64 64">
    <defs>
        <clipPath id="clip-path">
            <path id="Rectangle_129" data-name="Rectangle 129" class="cls-1" d="M0 0h55v44.917H0z"/>
        </clipPath>
        <style>
            .cls-1{fill:none}
        </style>
    </defs>
    <g id="Group_151" data-name="Group 151" transform="translate(4.5 9.542)">
        <g id="Group_150" data-name="Group 150">
            <g id="Group_149" data-name="Group 149" style="clip-path:url(#clip-path)">
                <path id="Path_926" data-name="Path 926" d="M54.953 7.991c-.009-.029-.015-.059-.027-.087a.9.9 0 0 0-.154-.257L48.356.314a.885.885 0 0 0-.278-.207.71.71 0 0 0-.086-.036.9.9 0 0 0-.278-.061c-.016 0-.031-.01-.048-.01H.917A.916.916 0 0 0 0 .917V44a.916.916 0 0 0 .917.917h53.166A.916.916 0 0 0 55 44V8.25c0-.018-.008-.034-.009-.052a.937.937 0 0 0-.038-.207m-6.37-4.635 3.48 3.977h-3.48zM1.833 1.833H46.75V8.25a.916.916 0 0 0 .917.917h5.5v17.505a3.1 3.1 0 0 0-.917-.153c-.083 0-.162.024-.245.03l.026-.075a22.12 22.12 0 0 0 1.136-7 4.806 4.806 0 0 0-8.2-3.4 1.364 1.364 0 0 1-1.925 0 4.789 4.789 0 0 0-7.287.6 4.789 4.789 0 0 0-7.288-.6 1.364 1.364 0 0 1-1.925 0 4.789 4.789 0 0 0-7.287.6 4.789 4.789 0 0 0-7.287-.6 1.364 1.364 0 0 1-1.925 0 4.806 4.806 0 0 0-8.2 3.4 22.12 22.12 0 0 0 1.136 7l.026.075c-.082-.006-.161-.03-.245-.03a3.1 3.1 0 0 0-.917.153V1.833zm2.876 24.061a20.254 20.254 0 0 1-1.042-6.422 2.973 2.973 0 0 1 5.075-2.1 3.2 3.2 0 0 0 4.517 0 2.973 2.973 0 0 1 5.075 2.1 20.254 20.254 0 0 1-1.042 6.422l-.744 2.233a.918.918 0 0 0-.042.2l-.78 7.8a.6.6 0 0 1-1.191 0l-.646-6.866a2.9 2.9 0 0 0-5.774-.017l-.647 6.882a.6.6 0 0 1-1.191 0l-.78-7.8a.918.918 0 0 0-.042-.2zm14.322.58c.083-.25.145-.506.219-.758.074.252.136.508.219.758l.416 1.246a3.523 3.523 0 0 0-1.271 0zm2.178-.58a20.254 20.254 0 0 1-1.042-6.422 2.973 2.973 0 0 1 5.075-2.1 3.2 3.2 0 0 0 4.517 0 2.973 2.973 0 0 1 5.075 2.1 20.254 20.254 0 0 1-1.042 6.422l-.744 2.233a.919.919 0 0 0-.042.2l-.78 7.8a.6.6 0 0 1-1.191 0l-.646-6.866a2.9 2.9 0 0 0-5.774-.017l-.647 6.882a.6.6 0 0 1-1.191 0l-.78-7.8a.918.918 0 0 0-.042-.2zm14.322.58c.083-.25.145-.506.219-.758.074.252.136.508.219.758l.361 1.083a3.522 3.522 0 0 0-1.16 0zm2.178-.58a20.254 20.254 0 0 1-1.042-6.422 2.973 2.973 0 0 1 5.075-2.1 3.2 3.2 0 0 0 4.517 0 2.973 2.973 0 0 1 5.075 2.1 20.254 20.254 0 0 1-1.042 6.422l-.744 2.233a.919.919 0 0 0-.042.2l-.78 7.8a.6.6 0 0 1-1.191 0l-.646-6.866a2.9 2.9 0 0 0-5.774-.017l-.647 6.882a.6.6 0 0 1-1.191 0l-.78-7.8a.918.918 0 0 0-.042-.2zm15.458 17.189H1.833V28.735a1.325 1.325 0 0 1 1.865.049l.753 7.526a2.431 2.431 0 0 0 4.84-.014l.649-6.9a1.063 1.063 0 0 1 2.121.017l.647 6.882a2.431 2.431 0 0 0 4.84.014l.644-6.432a1.666 1.666 0 0 1 2.116 0l.644 6.432a2.431 2.431 0 0 0 4.84-.014l.649-6.9a1.063 1.063 0 0 1 2.121.017l.647 6.882a2.431 2.431 0 0 0 4.84.014l.66-6.6a1.668 1.668 0 0 1 2.083 0l.66 6.6a2.431 2.431 0 0 0 4.84-.014l.649-6.9a1.063 1.063 0 0 1 2.121.017l.647 6.882a2.431 2.431 0 0 0 4.84.014l.753-7.526a1.325 1.325 0 0 1 1.865-.049z"/>
            </g>
        </g>
    </g>
    <path id="Rectangle_33" data-name="Rectangle 33" class="cls-1" d="M0 0h64v64H0z"/>
</svg>
