<svg data-name="Illlustration / Icon / Luck" xmlns="http://www.w3.org/2000/svg" width="64" height="64" viewBox="0 0 64 64">
    <defs>
        <clipPath id="vh1kdvq37a">
            <path data-name="Rectangle 141" style="fill:none" d="M0 0h50v50.001H0z"/>
        </clipPath>
    </defs>
    <path data-name="Rectangle 47" style="fill:none" d="M0 0h64v64H0z"/>
    <g data-name="Group 189">
        <g data-name="Group 188" style="clip-path:url(#vh1kdvq37a)" transform="translate(7 7)">
            <path data-name="Path 1027" d="M48.594 15.245a7.649 7.649 0 0 0-7.213-3.027c-1.867.2-4.182 1.366-6.517 2.917 1.551-2.335 2.718-4.65 2.916-6.515a7.641 7.641 0 0 0-3.023-7.213C32.213-.386 28.678-.466 25 1.172c-3.677-1.637-7.213-1.558-9.756.235a7.638 7.638 0 0 0-3.025 7.212c.2 1.867 1.366 4.183 2.919 6.519-2.337-1.552-4.653-2.721-6.519-2.919a7.646 7.646 0 0 0-7.213 3.027C-.387 17.789-.466 21.323 1.173 25c-1.639 3.679-1.56 7.213.233 9.756a7.487 7.487 0 0 0 6.245 3.077 9.332 9.332 0 0 0 .968-.051c1.866-.2 4.181-1.366 6.517-2.918-1.551 2.336-2.719 4.651-2.917 6.517a7.641 7.641 0 0 0 3.026 7.213A8 8 0 0 0 19.925 50 12.558 12.558 0 0 0 25 48.828c3.679 1.638 7.213 1.56 9.755-.234a7.641 7.641 0 0 0 3.026-7.214c-.2-1.866-1.365-4.18-2.916-6.515 2.335 1.551 4.65 2.718 6.516 2.916a9.065 9.065 0 0 0 .968.052 7.493 7.493 0 0 0 6.245-3.077c1.793-2.543 1.872-6.078.233-9.756 1.639-3.678 1.56-7.213-.233-9.755M14.207 8.408A5.6 5.6 0 0 1 16.4 3.041 6.04 6.04 0 0 1 19.929 2a10.85 10.85 0 0 1 4.638 1.175.994.994 0 0 0 .865 0c3.163-1.518 6.14-1.566 8.171-.134a5.6 5.6 0 0 1 2.189 5.367c-.342 3.218-4.491 8.565-7.947 12.332A60.903 60.903 0 0 0 25 23.524a60.262 60.262 0 0 0-2.84-2.777c-3.457-3.768-7.611-9.119-7.953-12.339m-5.8 27.385A5.6 5.6 0 0 1 3.041 33.6c-1.434-2.032-1.385-5.01.135-8.17a1 1 0 0 0 0-.867c-1.519-3.155-1.569-6.132-.136-8.163a5.434 5.434 0 0 1 4.589-2.233 7.4 7.4 0 0 1 .779.042c3.221.342 8.576 4.5 12.344 7.958 1.041 1.131 2 2.1 2.772 2.834a61.358 61.358 0 0 0-2.781 2.843c-3.767 3.457-9.116 7.608-12.335 7.95m27.385 5.8A5.6 5.6 0 0 1 33.6 46.96c-2.032 1.433-5.009 1.383-8.169-.135a1 1 0 0 0-.867 0c-3.158 1.518-6.136 1.568-8.169.135a5.6 5.6 0 0 1-2.19-5.368c.342-3.218 4.492-8.565 7.947-12.333a60.036 60.036 0 0 0 2.846-2.783c.734.774 1.712 1.74 2.849 2.787 3.455 3.766 7.6 9.11 7.944 12.329m11.033-16.159c1.52 3.16 1.568 6.138.135 8.17a5.608 5.608 0 0 1-5.367 2.189c-3.218-.341-8.562-4.488-12.33-7.943A60.161 60.161 0 0 0 26.476 25a60.614 60.614 0 0 0 2.785-2.848c3.767-3.455 9.113-7.6 12.331-7.945a5.6 5.6 0 0 1 5.367 2.19c1.433 2.033 1.385 5.01-.135 8.17a1 1 0 0 0 0 .866" style="fill:#231f20"/>
        </g>
    </g>
</svg>
