<?xml version="1.0" encoding="utf-8"?>
<!-- Generator: Adobe Illustrator 26.3.1, SVG Export Plug-In . SVG Version: 6.00 Build 0)  -->
<svg version="1.1" id="Camada_1" xmlns="http://www.w3.org/2000/svg" xmlns:xlink="http://www.w3.org/1999/xlink" x="0px" y="0px"
	 viewBox="0 0 51 51" style="enable-background:new 0 0 51 51;" xml:space="preserve">
<style type="text/css">
	.st0{fill:none;stroke:#000000;stroke-width:2;stroke-miterlimit:10;}
</style>
<path class="st0" d="M29.8,22.6c0,2.8-1.8,5-4,5s-4-2.2-4-5s1.8-4,4-4S29.8,19.9,29.8,22.6z"/>
<line class="st0" x1="30.8" y1="49.6" x2="30.8" y2="41.6"/>
<polyline class="st0" points="25.8,49.6 25.8,45.6 25.8,49.6 "/>
<line class="st0" x1="20.8" y1="41.6" x2="20.8" y2="49.6"/>
<path class="st0" d="M30.8,32.6v9c0,1.1,0.9,2,2,2c1.1,0,2-0.9,2-2v-10c0-2.2-1.8-4-4-4h-10c-2.2,0-4,1.8-4,4v10c0,1.1,0.9,2,2,2
	c1.1,0,2-0.9,2-2v-9"/>
<line class="st0" x1="20.8" y1="41.6" x2="30.8" y2="41.6"/>
<line class="st0" x1="25.8" y1="31.6" x2="25.8" y2="33.6"/>
<line class="st0" x1="25.8" y1="35.6" x2="25.8" y2="37.6"/>
<path class="st0" d="M15.8,22.6c0,2.8-1.8,5-4,5c-2.2,0-4-2.2-4-5s1.8-4,4-4C14,18.6,15.8,19.9,15.8,22.6z"/>
<polyline class="st0" points="11.8,49.6 11.8,45.6 11.8,49.6 "/>
<line class="st0" x1="6.8" y1="41.6" x2="6.8" y2="49.6"/>
<path class="st0" d="M11.8,27.6h-5c-2.2,0-4,1.8-4,4v10c0,1.1,0.9,2,2,2c1.1,0,2-0.9,2-2v-9"/>
<line class="st0" x1="6.8" y1="41.6" x2="13.8" y2="41.6"/>
<path class="st0" d="M35.8,22.6c0,2.8,1.8,5,4,5s4-2.2,4-5s-1.8-4-4-4S35.8,19.9,35.8,22.6z"/>
<line class="st0" x1="39.8" y1="45.6" x2="39.8" y2="49.6"/>
<line class="st0" x1="44.8" y1="41.6" x2="44.8" y2="49.6"/>
<path class="st0" d="M39.8,27.6h5c2.2,0,4,1.8,4,4v10c0,1.1-0.9,2-2,2c-1.1,0-2-0.9-2-2v-9"/>
<line class="st0" x1="44.8" y1="41.6" x2="37.8" y2="41.6"/>
<path class="st0" d="M29.8,6.6c0,2.8-1.8,5-4,5s-4-2.2-4-5s1.8-4,4-4S29.8,3.9,29.8,6.6z"/>
<path class="st0" d="M34.8,16.6v-1c0-2.2-1.8-4-4-4h-10c-2.2,0-4,1.8-4,4v1"/>
</svg>
