<?xml version="1.0" encoding="utf-8"?>
<!-- Generator: Adobe Illustrator 26.5.0, SVG Export Plug-In . SVG Version: 6.00 Build 0)  -->
<svg version="1.1" id="Camada_1" xmlns="http://www.w3.org/2000/svg" xmlns:xlink="http://www.w3.org/1999/xlink" x="0px" y="0px"
	 viewBox="0 0 28.3 28.3" style="enable-background:new 0 0 28.3 28.3;" xml:space="preserve">
<style type="text/css">
	.st0{fill:none;}
</style>
<g id="Icon_whatsapp_00000155133478225635860240000007126180214060880512_" transform="translate(0 2)">
	<g id="Grupo_94_00000062190879544050365950000010206389865027063223_">
		
			<rect id="Retângulo_83_00000117654478576813629290000002833188972911159482_" x="-2.4" y="-4.5" class="st0" width="33.4" height="33.4"/>
	</g>
	<g id="Grupo_97_00000145024446906440108300000006273245375123422883_" transform="translate(1.708 1.667)">
		<g id="Grupo_96_00000168100389172248026410000000960840829279750283_">
			<g id="Grupo_95_00000065035790941099458020000010626475569424081305_">
				<path id="Caminho_166_00000127766488356781109500000015367777585887186341_" d="M22.4,0.7c-2.6-2.6-6.1-4.1-9.7-4
					C5.1-3.4-1.1,2.8-1.1,10.4c0,2.4,0.6,4.8,1.8,6.9l-1.9,7.1l7.3-1.9c2,1.1,4.3,1.7,6.6,1.7l0,0c7.6,0,13.8-6.2,13.8-13.8
					C26.4,6.7,25,3.2,22.4,0.7z M12.7,21.8L12.7,21.8c-2.1,0-4.1-0.6-5.8-1.6L6.4,20l-4.3,1.1l1.2-4.2L3,16.5
					C-0.4,11.1,1.2,4,6.6,0.7c1.8-1.1,3.9-1.8,6.1-1.8C19-1,24,4.2,24,10.5C23.9,16.7,18.9,21.8,12.7,21.8z M19,13.3
					c-0.3-0.2-2-1-2.3-1.1c-0.3-0.1-0.5-0.2-0.8,0.2c-0.2,0.3-0.9,1.1-1.1,1.3s-0.4,0.3-0.8,0.1c-1-0.4-2-1-2.8-1.7
					c-0.8-0.7-1.4-1.5-1.9-2.4c-0.2-0.3,0-0.5,0.2-0.7C9.6,8.8,9.8,8.5,10,8.3c0.1-0.2,0.3-0.4,0.3-0.6c0.1-0.2,0.1-0.4,0-0.6
					C10.2,7,9.5,5.3,9.2,4.6C9,3.9,8.7,4,8.5,4H7.8C7.4,4,7.1,4.2,6.9,4.4C6.1,5.2,5.7,6.2,5.7,7.3c0.1,1.3,0.6,2.5,1.4,3.6
					c1.5,2.2,3.5,4,5.9,5.2c0.6,0.3,1.3,0.5,2,0.7c0.7,0.2,1.4,0.3,2.2,0.1c1-0.2,1.8-0.8,2.3-1.6c0.2-0.5,0.3-1.1,0.2-1.6
					C19.5,13.5,19.3,13.4,19,13.3z"/>
			</g>
		</g>
	</g>
</g>
</svg>
